<svg width="24" height="24" viewBox="0 0 24 24" fill="none" xmlns="http://www.w3.org/2000/svg">
<path d="M1 4V10H7" stroke="currentColor" stroke-width="2" stroke-linecap="round" stroke-linejoin="round"/>
<path d="M23 20V14H17" stroke="currentColor" stroke-width="2" stroke-linecap="round" stroke-linejoin="round"/>
<path d="M19.5473 9.3336C19.7316 9.85425 20.303 10.127 20.8236 9.94272C21.3443 9.75848 21.617 9.18705 21.4327 8.66641L19.5473 9.3336ZM5.64003 5.64L6.32481 6.36875C6.33242 6.3616 6.33993 6.35432 6.34731 6.34693L5.64003 5.64ZM0.315254 9.27125C-0.0872253 9.64944 -0.106914 10.2823 0.271277 10.6848C0.649469 11.0873 1.28233 11.1069 1.68481 10.7288L0.315254 9.27125ZM23.6848 14.7288C24.0873 14.3506 24.107 13.7177 23.7288 13.3152C23.3506 12.9127 22.7177 12.8931 22.3153 13.2712L23.6848 14.7288ZM18.36 18.36L17.6753 17.6312C17.6676 17.6384 17.6601 17.6457 17.6528 17.6531L18.36 18.36ZM4.45276 14.6664C4.26852 14.1458 3.69709 13.873 3.17644 14.0573C2.6558 14.2415 2.38308 14.813 2.56732 15.3336L4.45276 14.6664ZM21.4327 8.66641C20.2873 5.42953 17.5613 3.00665 14.2124 2.24891L13.7711 4.19961C16.4502 4.80579 18.631 6.7441 19.5473 9.3336L21.4327 8.66641ZM14.2124 2.24891C10.8635 1.49118 7.36003 2.50457 4.93275 4.93307L6.34731 6.34693C8.28914 4.40413 11.0919 3.59342 13.7711 4.19961L14.2124 2.24891ZM4.95525 4.91125L0.315254 9.27125L1.68481 10.7288L6.32481 6.36875L4.95525 4.91125ZM22.3153 13.2712L17.6753 17.6312L19.0448 19.0888L23.6848 14.7288L22.3153 13.2712ZM17.6528 17.6531C15.7109 19.5959 12.9081 20.4066 10.229 19.8004L9.78764 21.7511C13.1366 22.5088 16.64 21.4954 19.0673 19.0669L17.6528 17.6531ZM10.229 19.8004C7.54988 19.1942 5.3691 17.2559 4.45276 14.6664L2.56732 15.3336C3.71275 18.5705 6.43873 20.9934 9.78764 21.7511L10.229 19.8004Z" fill="currentColor"/>
</svg>
