<svg width="24" height="24" viewBox="0 0 24 24" fill="none" xmlns="http://www.w3.org/2000/svg">
<path d="M23 4V10H17" stroke="currentColor" stroke-width="2" stroke-linecap="round" stroke-linejoin="round"/>
<path d="M1 20V14H7" stroke="currentColor" stroke-width="2" stroke-linecap="round" stroke-linejoin="round"/>
<path d="M2.56735 8.66641C2.38311 9.18705 2.65583 9.75848 3.17647 9.94272C3.69712 10.127 4.26855 9.85425 4.45279 9.3336L2.56735 8.66641ZM18.3601 5.64L17.6528 6.34693C17.6602 6.35432 17.6677 6.3616 17.6753 6.36875L18.3601 5.64ZM22.3153 10.7288C22.7178 11.1069 23.3506 11.0873 23.7288 10.6848C24.107 10.2823 24.0873 9.64944 23.6848 9.27125L22.3153 10.7288ZM1.68484 13.2712C1.28236 12.8931 0.6495 12.9127 0.271308 13.3152C-0.106884 13.7177 -0.0871948 14.3506 0.315284 14.7288L1.68484 13.2712ZM5.64006 18.36L6.34734 17.6531C6.33996 17.6457 6.33245 17.6384 6.32484 17.6312L5.64006 18.36ZM21.4328 15.3336C21.617 14.813 21.3443 14.2415 20.8237 14.0573C20.303 13.873 19.7316 14.1458 19.5473 14.6664L21.4328 15.3336ZM4.45279 9.3336C5.36913 6.7441 7.54991 4.80579 10.229 4.19961L9.78767 2.24891C6.43876 3.00665 3.71278 5.42953 2.56735 8.66641L4.45279 9.3336ZM10.229 4.19961C12.9082 3.59342 15.711 4.40413 17.6528 6.34693L19.0674 4.93307C16.6401 2.50457 13.1366 1.49118 9.78767 2.24891L10.229 4.19961ZM17.6753 6.36875L22.3153 10.7288L23.6848 9.27125L19.0448 4.91125L17.6753 6.36875ZM0.315284 14.7288L4.95528 19.0888L6.32484 17.6312L1.68484 13.2712L0.315284 14.7288ZM4.93278 19.0669C7.36006 21.4954 10.8635 22.5088 14.2125 21.7511L13.7711 19.8004C11.092 20.4066 8.28918 19.5959 6.34734 17.6531L4.93278 19.0669ZM14.2125 21.7511C17.5614 20.9934 20.2874 18.5705 21.4328 15.3336L19.5473 14.6664C18.631 17.2559 16.4502 19.1942 13.7711 19.8004L14.2125 21.7511Z" fill="currentColor"/>
</svg>
