<svg width="24" height="24" viewBox="0 0 24 24" fill="none" xmlns="http://www.w3.org/2000/svg">
<path d="M10 15H11C11 14.4477 10.5523 14 10 14V15ZM13 22V23C13.3952 23 13.7533 22.7673 13.9138 22.4061L13 22ZM17 13L17.9138 13.4061C17.9706 13.2783 18 13.1399 18 13H17ZM17 2H18C18 1.44772 17.5523 1 17 1V2ZM5.72 2L5.70869 3H5.72V2ZM3.72 3.7L4.70845 3.85156L4.70869 3.84994L3.72 3.7ZM2.34 12.7L1.35155 12.5484L1.35132 12.5499L2.34 12.7ZM4.34 15V13.9999L4.32868 14.0001L4.34 15ZM17 2V1C16.4477 1 16 1.44772 16 2H17ZM19.67 2V3C19.6759 3 19.6818 2.99995 19.6877 2.99984L19.67 2ZM22 4H23C23 3.95517 22.997 3.91039 22.991 3.86596L22 4ZM22 11L22.991 11.134C22.997 11.0896 23 11.0448 23 11H22ZM19.67 13L19.6877 12.0002C19.6818 12.0001 19.6759 12 19.67 12V13ZM17 13H16C16 13.5523 16.4477 14 17 14V13ZM9 15V19H11V15H9ZM9 19C9 21.2091 10.7909 23 13 23V21C11.8954 21 11 20.1046 11 19H9ZM13.9138 22.4061L17.9138 13.4061L16.0862 12.5939L12.0862 21.5939L13.9138 22.4061ZM18 13V2H16V13H18ZM17 1H5.72V3H17V1ZM5.7313 1.00006C4.23537 0.983153 2.95561 2.07095 2.7313 3.55006L4.70869 3.84994C4.78346 3.3569 5.21005 2.9943 5.70869 2.99994L5.7313 1.00006ZM2.73155 3.54844L1.35155 12.5484L3.32845 12.8516L4.70845 3.85156L2.73155 3.54844ZM1.35132 12.5499C1.21924 13.4202 1.47598 14.3045 2.05353 14.9687L3.56275 13.6563C3.37023 13.4349 3.28465 13.1401 3.32868 12.8501L1.35132 12.5499ZM2.05353 14.9687C2.63109 15.6329 3.4712 16.0099 4.35132 15.9999L4.32868 14.0001C4.0353 14.0034 3.75527 13.8777 3.56275 13.6563L2.05353 14.9687ZM4.34 16H10V14H4.34V16ZM17 3H19.67V1H17V3ZM19.6877 2.99984C20.352 2.98809 20.92 3.47558 21.009 4.13404L22.991 3.86596C22.7659 2.20222 21.3309 0.97047 19.6523 1.00016L19.6877 2.99984ZM21 4V11H23V4H21ZM21.009 10.866C20.92 11.5244 20.352 12.0119 19.6877 12.0002L19.6523 13.9998C21.3309 14.0295 22.7659 12.7978 22.991 11.134L21.009 10.866ZM19.67 12H17V14H19.67V12ZM18 13V2H16V13H18Z" fill="currentColor"/>
</svg>
