<svg width="24" height="24" viewBox="0 0 24 24" fill="none" xmlns="http://www.w3.org/2000/svg">
<path fill-rule="evenodd" clip-rule="evenodd" d="M12 16C14.2091 16 16 14.2091 16 12C16 9.79086 14.2091 8 12 8C9.79086 8 8 9.79086 8 12C8 14.2091 9.79086 16 12 16Z" stroke="currentColor" stroke-width="2" stroke-linecap="round" stroke-linejoin="round"/>
<path d="M16 12V13C16 14.6569 17.3431 16 19 16C20.6568 16 22 14.6569 22 13V12C21.9997 7.3529 18.7981 3.31841 14.2726 2.2623C9.74712 1.20618 5.09046 3.40679 3.03324 7.57372C0.976012 11.7407 2.06043 16.7757 5.65061 19.7263C9.24079 22.6769 14.3905 22.7654 18.08 19.94" stroke="currentColor" stroke-width="2" stroke-linecap="round" stroke-linejoin="round"/>
</svg>
