<svg width="24" height="24" viewBox="0 0 24 24" fill="none" xmlns="http://www.w3.org/2000/svg">
<path fill-rule="evenodd" clip-rule="evenodd" d="M9.5915 15.2068C13.2805 15.2068 16.4335 15.7658 16.4335 17.9988C16.4335 20.2318 13.3015 20.8068 9.5915 20.8068C5.9015 20.8068 2.7495 20.2528 2.7495 18.0188C2.7495 15.7848 5.8805 15.2068 9.5915 15.2068Z" stroke="currentColor" stroke-width="1.5" stroke-linecap="round" stroke-linejoin="round"/>
<path fill-rule="evenodd" clip-rule="evenodd" d="M9.59149 12.0198C7.16949 12.0198 5.20549 10.0568 5.20549 7.63476C5.20549 5.21276 7.16949 3.24976 9.59149 3.24976C12.0125 3.24976 13.9765 5.21276 13.9765 7.63476C13.9855 10.0478 12.0355 12.0108 9.62249 12.0198H9.59149Z" stroke="currentColor" stroke-width="1.5" stroke-linecap="round" stroke-linejoin="round"/>
<path d="M16.4831 10.8815C18.0841 10.6565 19.3171 9.28253 19.3201 7.61953C19.3201 5.98053 18.1251 4.62053 16.5581 4.36353" stroke="currentColor" stroke-width="1.5" stroke-linecap="round" stroke-linejoin="round"/>
<path d="M18.5954 14.7322C20.1464 14.9632 21.2294 15.5072 21.2294 16.6272C21.2294 17.3982 20.7194 17.8982 19.8954 18.2112" stroke="currentColor" stroke-width="1.5" stroke-linecap="round" stroke-linejoin="round"/>
</svg>
