<svg width="24" height="24" viewBox="0 0 24 24" fill="none" xmlns="http://www.w3.org/2000/svg">
<path fill-rule="evenodd" clip-rule="evenodd" d="M9.8766 15.2063C6.0326 15.2063 2.7496 15.7873 2.7496 18.1153C2.7496 20.4433 6.0126 21.0453 9.8766 21.0453C13.7216 21.0453 17.0036 20.4633 17.0036 18.1363C17.0036 15.8093 13.7416 15.2063 9.8766 15.2063Z" stroke="currentColor" stroke-width="1.5" stroke-linecap="round" stroke-linejoin="round"/>
<path fill-rule="evenodd" clip-rule="evenodd" d="M9.8766 11.886C12.3996 11.886 14.4446 9.841 14.4446 7.318C14.4446 4.795 12.3996 2.75 9.8766 2.75C7.3546 2.75 5.3096 4.795 5.3096 7.318C5.3006 9.832 7.3306 11.877 9.8456 11.886H9.8766Z" stroke="currentColor" stroke-width="1.5" stroke-linecap="round" stroke-linejoin="round"/>
<path d="M19.2037 8.66919V12.6792" stroke="currentColor" stroke-width="1.5" stroke-linecap="round" stroke-linejoin="round"/>
<path d="M21.2496 10.6741H17.1596" stroke="currentColor" stroke-width="1.5" stroke-linecap="round" stroke-linejoin="round"/>
</svg>
