<svg width="24" height="24" viewBox="0 0 24 24" fill="none" xmlns="http://www.w3.org/2000/svg">
<path fill-rule="evenodd" clip-rule="evenodd" d="M15.0402 4.05126C16.0502 4.45326 16.3592 5.85326 16.7722 6.30326C17.1852 6.75326 17.7762 6.90626 18.1032 6.90626C19.8412 6.90626 21.2502 8.31526 21.2502 10.0523V15.8473C21.2502 18.1773 19.3602 20.0673 17.0302 20.0673H6.97021C4.63921 20.0673 2.75021 18.1773 2.75021 15.8473V10.0523C2.75021 8.31526 4.15921 6.90626 5.89721 6.90626C6.22321 6.90626 6.81421 6.75326 7.22821 6.30326C7.64121 5.85326 7.94921 4.45326 8.95921 4.05126C9.97021 3.64926 14.0302 3.64926 15.0402 4.05126Z" stroke="currentColor" stroke-width="1.5" stroke-linecap="round" stroke-linejoin="round"/>
<path d="M17.4955 9.5H17.5045" stroke="currentColor" stroke-width="2" stroke-linecap="round" stroke-linejoin="round"/>
<path fill-rule="evenodd" clip-rule="evenodd" d="M15.1789 13.128C15.1789 11.372 13.7559 9.94897 11.9999 9.94897C10.2439 9.94897 8.82092 11.372 8.82092 13.128C8.82092 14.884 10.2439 16.307 11.9999 16.307C13.7559 16.307 15.1789 14.884 15.1789 13.128Z" stroke="currentColor" stroke-width="1.5" stroke-linecap="round" stroke-linejoin="round"/>
</svg>
