<svg width="24" height="24" viewBox="0 0 24 24" fill="none" xmlns="http://www.w3.org/2000/svg">
<path d="M4.7949 7.05589C4.7949 5.80689 5.8069 4.79489 7.0559 4.79389H8.0849C8.6819 4.79389 9.2539 4.55689 9.6779 4.13689L10.3969 3.41689C11.2779 2.53089 12.7099 2.52689 13.5959 3.40789L13.5969 3.40889L13.6059 3.41689L14.3259 4.13689C14.7499 4.55789 15.3219 4.79389 15.9189 4.79389H16.9469C18.1959 4.79389 19.2089 5.80589 19.2089 7.05589V8.08289C19.2089 8.67989 19.4449 9.25289 19.8659 9.67689L20.5859 10.3969C21.4719 11.2779 21.4769 12.7099 20.5959 13.5959L20.5949 13.5969L20.5859 13.6059L19.8659 14.3259C19.4449 14.7489 19.2089 15.3209 19.2089 15.9179V16.9469C19.2089 18.1959 18.1969 19.2079 16.9479 19.2079H16.9469H15.9169C15.3199 19.2079 14.7469 19.4449 14.3239 19.8659L13.6039 20.5849C12.7239 21.4709 11.2929 21.4759 10.4069 20.5969C10.4059 20.5959 10.4049 20.5949 10.4039 20.5939L10.3949 20.5849L9.6759 19.8659C9.2529 19.4449 8.6799 19.2089 8.0829 19.2079H7.0559C5.8069 19.2079 4.7949 18.1959 4.7949 16.9469V15.9159C4.7949 15.3189 4.5579 14.7469 4.1369 14.3239L3.4179 13.6039C2.5319 12.7239 2.5269 11.2929 3.4069 10.4069C3.4069 10.4059 3.4079 10.4049 3.4089 10.4039L3.4179 10.3949L4.1369 9.67489C4.5579 9.25089 4.7949 8.67889 4.7949 8.08089V7.05589" stroke="currentColor" stroke-width="1.5" stroke-linecap="round" stroke-linejoin="round"/>
<path d="M9.43159 14.5716L14.5716 9.43164" stroke="currentColor" stroke-width="1.5" stroke-linecap="round" stroke-linejoin="round"/>
<path d="M14.4955 14.5H14.5045" stroke="currentColor" stroke-width="2" stroke-linecap="round" stroke-linejoin="round"/>
<path d="M9.4955 9.5H9.5045" stroke="currentColor" stroke-width="2" stroke-linecap="round" stroke-linejoin="round"/>
</svg>
