<svg width="24" height="24" viewBox="0 0 24 24" fill="none" xmlns="http://www.w3.org/2000/svg">
<path d="M11.4923 2.78906H7.7533C4.6783 2.78906 2.75031 4.96606 2.75031 8.04806V16.3621C2.75031 19.4441 4.6693 21.6211 7.7533 21.6211H16.5773C19.6623 21.6211 21.5813 19.4441 21.5813 16.3621V12.3341" stroke="currentColor" stroke-width="1.5" stroke-linecap="round" stroke-linejoin="round"/>
<path fill-rule="evenodd" clip-rule="evenodd" d="M8.82782 10.921L16.3008 3.44799C17.2318 2.51799 18.7408 2.51799 19.6718 3.44799L20.8888 4.66499C21.8198 5.59599 21.8198 7.10599 20.8888 8.03599L13.3798 15.545C12.9728 15.952 12.4208 16.181 11.8448 16.181H8.09882L8.19282 12.401C8.20682 11.845 8.43382 11.315 8.82782 10.921Z" stroke="currentColor" stroke-width="1.5" stroke-linecap="round" stroke-linejoin="round"/>
<path d="M15.1652 4.60254L19.7312 9.16854" stroke="currentColor" stroke-width="1.5" stroke-linecap="round" stroke-linejoin="round"/>
</svg>
