<svg width="24" height="24" viewBox="0 0 24 24" fill="none" xmlns="http://www.w3.org/2000/svg">
<path fill-rule="evenodd" clip-rule="evenodd" d="M17.2779 13.8894C17.9526 13.8894 18.5189 14.4462 18.4158 15.1125C17.8105 19.0325 14.4547 21.9431 10.4074 21.9431C5.92946 21.9431 2.29999 18.3136 2.29999 13.8368C2.29999 10.1483 5.10209 6.71255 8.25683 5.9357C8.93472 5.76834 9.62946 6.24518 9.62946 6.94307C9.62946 11.6715 9.78841 12.8947 10.6863 13.5599C11.5842 14.2252 12.64 13.8894 17.2779 13.8894Z" stroke="currentColor" stroke-width="1.5" stroke-linecap="round" stroke-linejoin="round"/>
<path fill-rule="evenodd" clip-rule="evenodd" d="M21.6925 9.9517C21.7462 6.9138 18.0146 2.01696 13.4672 2.10117C13.1136 2.10749 12.8304 2.40222 12.8146 2.75485C12.6999 5.25275 12.8546 8.48959 12.9409 9.95696C12.9672 10.4138 13.3262 10.7727 13.782 10.7991C15.2904 10.8854 18.6451 11.0033 21.1072 10.6306C21.442 10.5801 21.6872 10.2896 21.6925 9.9517Z" stroke="currentColor" stroke-width="1.5" stroke-linecap="round" stroke-linejoin="round"/>
</svg>
