<svg width="24" height="24" viewBox="0 0 24 24" fill="none" xmlns="http://www.w3.org/2000/svg">
<path fill-rule="evenodd" clip-rule="evenodd" d="M21.21 7.89924V16.0502C21.21 19.0702 19.32 21.2002 16.3 21.2002H7.65C4.63 21.2002 2.75 19.0702 2.75 16.0502V7.89924C2.75 4.87924 4.64 2.75024 7.65 2.75024H16.3C19.32 2.75024 21.21 4.87924 21.21 7.89924Z" stroke="currentColor" stroke-width="1.5" stroke-linecap="round" stroke-linejoin="round"/>
<path d="M5.28131 16.4311L6.80931 14.8181C7.34031 14.2551 8.22531 14.2281 8.78931 14.7581C8.80631 14.7751 9.72631 15.7101 9.72631 15.7101C10.2813 16.2751 11.1883 16.2841 11.7533 15.7301C11.7903 15.6941 14.0873 12.9081 14.0873 12.9081C14.6793 12.1891 15.7423 12.0861 16.4623 12.6791C16.5103 12.7191 18.6803 14.9461 18.6803 14.9461" stroke="currentColor" stroke-width="1.5" stroke-linecap="round" stroke-linejoin="round"/>
<path fill-rule="evenodd" clip-rule="evenodd" d="M10.3126 9.13315C10.3126 10.1022 9.5276 10.8872 8.5586 10.8872C7.5896 10.8872 6.8046 10.1022 6.8046 9.13315C6.8046 8.16415 7.5896 7.37915 8.5586 7.37915C9.5276 7.38015 10.3126 8.16415 10.3126 9.13315Z" stroke="currentColor" stroke-width="1.5" stroke-linecap="round" stroke-linejoin="round"/>
</svg>
