<svg width="24" height="24" viewBox="0 0 24 24" fill="none" xmlns="http://www.w3.org/2000/svg">
<path fill-rule="evenodd" clip-rule="evenodd" d="M16.3341 2.75H7.6651C4.6441 2.75 2.7501 4.889 2.7501 7.916V16.084C2.7501 19.111 4.6351 21.25 7.6651 21.25H16.3331C19.3641 21.25 21.2501 19.111 21.2501 16.084V7.916C21.2501 4.889 19.3641 2.75 16.3341 2.75Z" stroke="currentColor" stroke-width="1.5" stroke-linecap="round" stroke-linejoin="round"/>
<path fill-rule="evenodd" clip-rule="evenodd" d="M10.6891 11.9999C10.6891 13.0229 9.8601 13.8519 8.8371 13.8519C7.8141 13.8519 6.9851 13.0229 6.9851 11.9999C6.9851 10.9769 7.8141 10.1479 8.8371 10.1479H8.8401C9.8611 10.1489 10.6891 10.9779 10.6891 11.9999Z" stroke="currentColor" stroke-width="1.5" stroke-linecap="round" stroke-linejoin="round"/>
<path d="M10.692 12H17.01V13.852" stroke="currentColor" stroke-width="1.5" stroke-linecap="round" stroke-linejoin="round"/>
<path d="M14.1818 13.852V12" stroke="currentColor" stroke-width="1.5" stroke-linecap="round" stroke-linejoin="round"/>
</svg>
