<svg width="25" height="24" viewBox="0 0 25 24" fill="none" xmlns="http://www.w3.org/2000/svg">
<path d="M21.8189 16.56C21.6035 17.0686 21.8411 17.6554 22.3497 17.8708C22.8583 18.0862 23.4451 17.8486 23.6605 17.34L21.8189 16.56ZM18.1297 10V11L18.1309 11L18.1297 10ZM16.8697 10L15.9005 10.2461C16.0131 10.6895 16.4122 11 16.8697 11V10ZM9.90769 3.00388C9.35755 2.95528 8.87218 3.36187 8.82358 3.91201C8.77499 4.46215 9.18157 4.94753 9.73171 4.99612L9.90769 3.00388ZM5.61368 5.87513C6.097 5.60789 6.27217 4.99943 6.00493 4.51611C5.73768 4.03279 5.12923 3.85763 4.64591 4.12487L5.61368 5.87513ZM9.1298 20V19C9.12442 19 9.11905 19 9.11368 19.0001L9.1298 20ZM18.1298 20V21H18.131L18.1298 20ZM20.171 20.64C20.6901 20.4516 20.9582 19.878 20.7698 19.3588C20.5814 18.8397 20.0078 18.5716 19.4886 18.76L20.171 20.64ZM23.6605 17.34C24.4458 15.4859 24.2487 13.3614 23.1357 11.6834L21.469 12.7889C22.211 13.9076 22.3424 15.3239 21.8189 16.56L23.6605 17.34ZM23.1357 11.6834C22.0226 10.0054 20.1421 8.99761 18.1285 9L18.1309 11C19.4733 10.9984 20.727 11.6703 21.469 12.7889L23.1357 11.6834ZM18.1297 9H16.8697V11H18.1297V9ZM17.8389 9.75388C16.8977 6.04736 13.717 3.34036 9.90769 3.00388L9.73171 4.99612C12.6945 5.25783 15.1684 7.36328 15.9005 10.2461L17.8389 9.75388ZM4.64591 4.12487C1.03035 6.12403 -0.759733 10.3281 0.304787 14.32L2.23726 13.8047C1.4093 10.6998 2.80159 7.43003 5.61368 5.87513L4.64591 4.12487ZM0.304787 14.32C1.36931 18.312 5.01499 21.0664 9.14591 20.9999L9.11368 19.0001C5.90075 19.0519 3.06522 16.9095 2.23726 13.8047L0.304787 14.32ZM9.1298 21H18.1298V19H9.1298V21ZM18.131 21C18.8267 20.9992 19.517 20.8774 20.171 20.64L19.4886 18.76C19.0526 18.9182 18.5924 18.9995 18.1286 19L18.131 21Z" fill="currentColor"/>
<path d="M1 1L23 23" stroke="currentColor" stroke-width="2" stroke-linecap="round" stroke-linejoin="round"/>
</svg>
