<svg width="24" height="24" viewBox="0 0 24 24" fill="none" xmlns="http://www.w3.org/2000/svg">
<path d="M9 3C9 2.44772 8.55228 2 8 2C7.44772 2 7 2.44772 7 3H9ZM3 7C2.44772 7 2 7.44772 2 8C2 8.55228 2.44772 9 3 9V7ZM21 9C21.5523 9 22 8.55228 22 8C22 7.44772 21.5523 7 21 7V9ZM17 3C17 2.44772 16.5523 2 16 2C15.4477 2 15 2.44772 15 3H17ZM15 21C15 21.5523 15.4477 22 16 22C16.5523 22 17 21.5523 17 21H15ZM21 17C21.5523 17 22 16.5523 22 16C22 15.4477 21.5523 15 21 15V17ZM3 15C2.44772 15 2 15.4477 2 16C2 16.5523 2.44772 17 3 17V15ZM7 21C7 21.5523 7.44772 22 8 22C8.55228 22 9 21.5523 9 21H7ZM7 3V6H9V3H7ZM7 6C7 6.55228 6.55228 7 6 7V9C7.65685 9 9 7.65685 9 6H7ZM6 7H3V9H6V7ZM21 7H18V9H21V7ZM18 7C17.4477 7 17 6.55228 17 6H15C15 7.65685 16.3431 9 18 9V7ZM17 6V3H15V6H17ZM17 21V18H15V21H17ZM17 18C17 17.4477 17.4477 17 18 17V15C16.3431 15 15 16.3431 15 18H17ZM18 17H21V15H18V17ZM3 17H6V15H3V17ZM6 17C6.55228 17 7 17.4477 7 18H9C9 16.3431 7.65685 15 6 15V17ZM7 18V21H9V18H7Z" fill="currentColor"/>
</svg>
