<svg width="24" height="24" viewBox="0 0 24 24" fill="none" xmlns="http://www.w3.org/2000/svg">
<path d="M10 13C10.869 14.1617 12.1996 14.8887 13.6466 14.9923C15.0937 15.096 16.5144 14.566 17.54 13.54L20.54 10.54C22.4349 8.5781 22.4078 5.45957 20.4791 3.5309C18.5504 1.60223 15.4319 1.57514 13.47 3.47L11.75 5.18" stroke="currentColor" stroke-width="2" stroke-linecap="round" stroke-linejoin="round"/>
<path d="M14 11C13.1311 9.8383 11.8004 9.1113 10.3534 9.00766C8.90635 8.90403 7.48565 9.43399 6.46002 10.46L3.46002 13.46C1.56516 15.4219 1.59226 18.5404 3.52092 20.4691C5.44959 22.3978 8.56812 22.4249 10.53 20.53L12.24 18.82" stroke="currentColor" stroke-width="2" stroke-linecap="round" stroke-linejoin="round"/>
</svg>
