<svg width="24" height="24" viewBox="0 0 24 24" fill="none" xmlns="http://www.w3.org/2000/svg">
<path d="M2.19983 15.1202C1.65869 15.0098 1.13053 15.359 1.02017 15.9002C0.909806 16.4413 1.25902 16.9695 1.80017 17.0798L2.19983 15.1202ZM4.92017 20.1998C5.03053 20.741 5.55869 21.0902 6.09983 20.9798C6.64098 20.8695 6.99019 20.3413 6.87983 19.8002L4.92017 20.1998ZM2.11054 11.0561C1.56164 10.9951 1.06718 11.3906 1.00613 11.9395C0.945079 12.4884 1.34056 12.9828 1.88946 13.0439L2.11054 11.0561ZM8.95613 20.1105C9.01718 20.6594 9.51164 21.0549 10.0605 20.9939C10.6094 20.9328 11.0049 20.4384 10.9439 19.8895L8.95613 20.1105ZM1 8C1 8.55228 1.44772 9 2 9C2.55228 9 3 8.55228 3 8H1ZM14 19C13.4477 19 13 19.4477 13 20C13 20.5523 13.4477 21 14 21V19ZM1.80017 17.0798C3.3716 17.4003 4.59969 18.6284 4.92017 20.1998L6.87983 19.8002C6.39911 17.443 4.55698 15.6009 2.19983 15.1202L1.80017 17.0798ZM1.88946 13.0439C5.60756 13.4574 8.5426 16.3924 8.95613 20.1105L10.9439 19.8895C10.427 15.2418 6.75816 11.573 2.11054 11.0561L1.88946 13.0439ZM3 8V6H1V8H3ZM3 6C3 5.44772 3.44772 5 4 5V3C2.34315 3 1 4.34315 1 6H3ZM4 5H20V3H4V5ZM20 5C20.5523 5 21 5.44772 21 6H23C23 4.34315 21.6569 3 20 3V5ZM21 6V18H23V6H21ZM21 18C21 18.5523 20.5523 19 20 19V21C21.6569 21 23 19.6569 23 18H21ZM20 19H14V21H20V19Z" fill="currentColor"/>
</svg>
