<svg width="24" height="24" viewBox="0 0 24 24" fill="none" xmlns="http://www.w3.org/2000/svg">
<path d="M9.34933 14.8578C5.38553 14.8578 2 15.4701 2 17.9174C2 20.3667 5.364 21.0001 9.34933 21.0001C13.3131 21.0001 16.6987 20.3877 16.6987 17.9404C16.6987 15.4912 13.3347 14.8578 9.34933 14.8578" fill="currentColor"/>
<path opacity="0.4" d="M9.34934 12.5248C12.049 12.5248 14.2124 10.4062 14.2124 7.76241C14.2124 5.11865 12.049 3 9.34934 3C6.6507 3 4.48631 5.11865 4.48631 7.76241C4.48631 10.4062 6.6507 12.5248 9.34934 12.5248" fill="currentColor"/>
<path opacity="0.4" d="M16.1734 7.84873C16.1734 9.19505 15.7605 10.4513 15.0364 11.4948C14.9611 11.6021 15.0276 11.7468 15.1587 11.7698C15.3407 11.7995 15.5276 11.8177 15.7184 11.8216C17.6167 11.8704 19.3202 10.6736 19.7908 8.87116C20.4885 6.19674 18.4415 3.79541 15.8339 3.79541C15.5511 3.79541 15.2801 3.82416 15.0159 3.87686C14.9797 3.88453 14.9405 3.90177 14.921 3.93244C14.8955 3.97172 14.9141 4.02251 14.9396 4.05605C15.7233 5.13214 16.1734 6.44205 16.1734 7.84873" fill="currentColor"/>
<path d="M21.7791 15.1694C21.4317 14.444 20.5932 13.9467 19.3173 13.7023C18.7155 13.5586 17.0854 13.3545 15.5697 13.3832C15.5472 13.3861 15.5345 13.4014 15.5325 13.411C15.5296 13.4263 15.5364 13.4493 15.5658 13.4656C16.2664 13.8049 18.9738 15.2805 18.6333 18.3929C18.6186 18.5289 18.7292 18.6439 18.8672 18.6248C19.5335 18.5318 21.2478 18.1706 21.7791 17.0475C22.0736 16.4534 22.0736 15.7635 21.7791 15.1694" fill="currentColor"/>
</svg>
