<svg width="24" height="24" viewBox="0 0 24 24" fill="none" xmlns="http://www.w3.org/2000/svg">
<path opacity="0.4" d="M1.99979 12C1.99979 6.485 6.48579 2 11.9998 2C17.5138 2 21.9998 6.485 21.9998 12C21.9998 17.514 17.5138 22 11.9998 22C6.48579 22 1.99979 17.514 1.99979 12" fill="currentColor"/>
<path d="M7.77908 13.4424C7.77908 13.2514 7.85208 13.0594 7.99808 12.9134L11.4681 9.4264C11.6091 9.2854 11.8001 9.2064 12.0001 9.2064C12.1991 9.2064 12.3901 9.2854 12.5311 9.4264L16.0031 12.9134C16.2951 13.2064 16.2951 13.6804 16.0011 13.9734C15.7071 14.2654 15.2321 14.2644 14.9401 13.9714L12.0001 11.0184L9.06008 13.9714C8.76808 14.2644 8.29408 14.2654 8.00008 13.9734C7.85208 13.8274 7.77908 13.6344 7.77908 13.4424" fill="currentColor"/>
</svg>
