<svg width="24" height="24" viewBox="0 0 24 24" fill="none" xmlns="http://www.w3.org/2000/svg">
<path opacity="0.4" d="M11.3408 20.289L11.3408 11.811C11.3408 11.4188 11.6591 11.1005 12.0513 11.1005C12.4435 11.1005 12.7618 11.4188 12.7618 11.811L12.7618 20.289C12.7618 20.6812 12.4435 20.9995 12.0513 20.9995C11.6591 20.9995 11.3408 20.6812 11.3408 20.289" fill="currentColor"/>
<mask id="mask0" style="mask-type:alpha" maskUnits="userSpaceOnUse" x="6" y="3" width="12" height="10">
<path fill-rule="evenodd" clip-rule="evenodd" d="M17.4998 12.5214L6.60336 12.5214L6.60336 3.5819L17.4998 3.5819V12.5214Z" fill="white"/>
</mask>
<g mask="url(#mask0)">
<path d="M6.60307 11.8108C6.60307 11.6782 6.64002 11.5475 6.71202 11.4319L11.4498 3.91357C11.5805 3.70705 11.807 3.58105 12.0514 3.58105C12.2958 3.58105 12.5222 3.70705 12.653 3.91357L17.3908 11.4319C17.5281 11.6507 17.5367 11.9274 17.4107 12.1538C17.2856 12.3812 17.0478 12.5214 16.7892 12.5214L7.3136 12.5214C7.05497 12.5214 6.81718 12.3812 6.69213 12.1538C6.63244 12.0467 6.60307 11.9283 6.60307 11.8108" fill="currentColor"/>
</g>
</svg>
