<svg width="24" height="24" viewBox="0 0 24 24" fill="none" xmlns="http://www.w3.org/2000/svg">
<path opacity="0.4" d="M15.7975 10.8096L19.4967 10.4824C20.3269 10.4824 21 11.1621 21 12.0003C21 12.8386 20.3269 13.5182 19.4967 13.5182L15.7975 13.1911C15.1463 13.1911 14.6183 12.6579 14.6183 12.0003C14.6183 11.3416 15.1463 10.8096 15.7975 10.8096" fill="currentColor"/>
<path d="M3.37528 10.8698C3.4331 10.8115 3.64909 10.5647 3.852 10.3598C5.03562 9.07656 8.12613 6.97815 9.74284 6.33596C9.98829 6.23352 10.609 6.01542 10.9417 6C11.2592 6 11.5625 6.0738 11.8515 6.2192C12.2126 6.42299 12.5006 6.74463 12.6599 7.12355C12.7613 7.38572 12.9206 8.17331 12.9206 8.18763C13.0788 9.04792 13.165 10.4469 13.165 11.9934C13.165 13.465 13.0788 14.8067 12.949 15.6813C12.9348 15.6967 12.7755 16.6738 12.6021 17.0086C12.2846 17.6211 11.6639 18 10.9995 18H10.9417C10.5086 17.9857 9.59884 17.6057 9.59884 17.5924C8.06831 16.9502 5.05089 14.9532 3.83782 13.6258C3.83782 13.6258 3.49528 13.2844 3.34692 13.0718C3.11565 12.7656 3.00001 12.3866 3.00001 12.0077C3.00001 11.5847 3.12983 11.1915 3.37528 10.8698" fill="currentColor"/>
</svg>
