<svg width="24" height="24" viewBox="0 0 24 24" fill="none" xmlns="http://www.w3.org/2000/svg">
<path opacity="0.4" d="M22.0002 11.9999C22.0002 17.5149 17.5142 21.9999 12.0002 21.9999C6.4862 21.9999 2.0002 17.5149 2.0002 11.9999C2.0002 6.48588 6.4862 1.99988 12.0002 1.99988C17.5142 1.99988 22.0002 6.48588 22.0002 11.9999" fill="currentColor"/>
<path d="M16.2209 10.5575C16.2209 10.7485 16.1479 10.9405 16.0019 11.0865L12.5319 14.5735C12.3909 14.7145 12.1999 14.7935 11.9999 14.7935C11.8009 14.7935 11.6099 14.7145 11.4689 14.5735L7.9969 11.0865C7.7049 10.7935 7.7049 10.3195 7.9989 10.0265C8.2929 9.73448 8.7679 9.73548 9.0599 10.0285L11.9999 12.9815L14.9399 10.0285C15.2319 9.73548 15.7059 9.73448 15.9999 10.0265C16.1479 10.1725 16.2209 10.3655 16.2209 10.5575" fill="currentColor"/>
</svg>
