<svg width="24" height="24" viewBox="0 0 24 24" fill="none" xmlns="http://www.w3.org/2000/svg">
<path opacity="0.4" d="M16.0841 2L7.91609 2C4.37709 2 2.00009 4.276 2.00009 7.665L2.00009 16.335C2.00009 19.724 4.37709 22 7.91609 22L16.0841 22C19.6221 22 22.0001 19.723 22.0001 16.334L22.0001 7.665C22.0001 4.276 19.6221 2 16.0841 2" fill="currentColor"/>
<path d="M11.1446 7.72082L7.3796 11.4688C7.0966 11.7508 7.0966 12.2498 7.3796 12.5328L11.1446 16.2808C11.4386 16.5728 11.9136 16.5718 12.2056 16.2778C12.4976 15.9838 12.4976 15.5098 12.2036 15.2168L9.7266 12.7498H16.0816C16.4966 12.7498 16.8316 12.4138 16.8316 11.9998C16.8316 11.5858 16.4966 11.2498 16.0816 11.2498L9.7266 11.2498L12.2036 8.78382C12.3506 8.63682 12.4236 8.44482 12.4236 8.25182C12.4236 8.06082 12.3506 7.86882 12.2056 7.72282C11.9136 7.42982 11.4386 7.42882 11.1446 7.72082" fill="currentColor"/>
</svg>
