<svg width="24" height="24" viewBox="0 0 24 24" fill="none" xmlns="http://www.w3.org/2000/svg">
<path opacity="0.4" d="M7.91591 22.0001H16.0839C19.6229 22.0001 21.9999 19.7241 21.9999 16.3351V7.66512C21.9999 4.27612 19.6229 2.00012 16.0839 2.00012H7.91591C4.37791 2.00012 1.99991 4.27712 1.99991 7.66612L1.99991 16.3351C1.99991 19.7241 4.37791 22.0001 7.91591 22.0001" fill="currentColor"/>
<path d="M12.8554 16.2794L16.6204 12.5314C16.9034 12.2494 16.9034 11.7504 16.6204 11.4674L12.8554 7.71943C12.5614 7.42743 12.0864 7.42843 11.7944 7.72243C11.5024 8.01643 11.5024 8.49043 11.7964 8.78343L14.2734 11.2504H7.9184C7.5034 11.2504 7.1684 11.5864 7.1684 12.0004C7.1684 12.4144 7.5034 12.7504 7.9184 12.7504H14.2734L11.7964 15.2164C11.6494 15.3634 11.5764 15.5554 11.5764 15.7484C11.5764 15.9394 11.6494 16.1314 11.7944 16.2774C12.0864 16.5704 12.5614 16.5714 12.8554 16.2794" fill="currentColor"/>
</svg>
