<svg width="24" height="24" viewBox="0 0 24 24" fill="none" xmlns="http://www.w3.org/2000/svg">
<path opacity="0.4" d="M20.2891 12.6593L11.8111 12.6593C11.4189 12.6593 11.1006 12.341 11.1006 11.9488C11.1006 11.5566 11.4189 11.2383 11.8111 11.2383L20.2891 11.2383C20.6813 11.2383 20.9996 11.5566 20.9996 11.9488C20.9996 12.341 20.6813 12.6593 20.2891 12.6593" fill="currentColor"/>
<mask id="mask0" style="mask-type:alpha" maskUnits="userSpaceOnUse" x="3" y="6" width="10" height="12">
<path fill-rule="evenodd" clip-rule="evenodd" d="M12.5215 6.50024L12.5215 17.3966H3.58199L3.58199 6.50024L12.5215 6.50024Z" fill="white"/>
</mask>
<g mask="url(#mask0)">
<path d="M11.8109 17.3969C11.6783 17.3969 11.5476 17.36 11.432 17.288L3.91366 12.5502C3.70714 12.4195 3.58114 12.193 3.58114 11.9486C3.58114 11.7042 3.70714 11.4778 3.91366 11.347L11.432 6.60924C11.6508 6.47187 11.9275 6.46335 12.1539 6.58935C12.3812 6.7144 12.5215 6.95219 12.5215 7.21082L12.5215 16.6864C12.5215 16.945 12.3812 17.1828 12.1539 17.3079C12.0468 17.3676 11.9284 17.3969 11.8109 17.3969" fill="currentColor"/>
</g>
</svg>
