<svg width="24" height="24" viewBox="0 0 24 24" fill="none" xmlns="http://www.w3.org/2000/svg">
<path opacity="0.4" d="M13.1903 15.7975L13.5175 19.4967C13.5175 20.3269 12.8378 21 11.9996 21C11.1613 21 10.4817 20.3269 10.4817 19.4967L10.8088 15.7975C10.8088 15.1463 11.3419 14.6183 11.9996 14.6183C12.6583 14.6183 13.1903 15.1463 13.1903 15.7975" fill="currentColor"/>
<path d="M13.1302 3.37522C13.1885 3.43303 13.4353 3.64903 13.6402 3.85194C14.9234 5.03556 17.0218 8.12607 17.664 9.74278C17.7665 9.98823 17.9846 10.6089 18 10.9417C18 11.2591 17.9262 11.5624 17.7808 11.8515C17.577 12.2126 17.2554 12.5006 16.8764 12.6598C16.6143 12.7613 15.8267 12.9206 15.8124 12.9206C14.9521 13.0787 13.5531 13.1649 12.0066 13.1649C10.535 13.1649 9.19332 13.0787 8.31871 12.9489C8.30329 12.9347 7.32623 12.7755 6.99137 12.602C6.37892 12.2846 6 11.6638 6 10.9995V10.9417C6.01432 10.5086 6.39435 9.59878 6.40756 9.59878C7.04975 8.06825 9.04681 5.05083 10.3742 3.83776C10.3742 3.83776 10.7156 3.49522 10.9282 3.34685C11.2344 3.11558 11.6134 2.99995 11.9923 2.99995C12.4153 2.99995 12.8085 3.12977 13.1302 3.37522" fill="currentColor"/>
</svg>
