<svg width="24" height="24" viewBox="0 0 24 24" fill="none" xmlns="http://www.w3.org/2000/svg">
<path opacity="0.4" fill-rule="evenodd" clip-rule="evenodd" d="M5.9106 20.5885C5.9106 19.7485 6.5906 19.0685 7.4306 19.0685C8.2606 19.0685 8.9406 19.7485 8.9406 20.5885C8.9406 21.4185 8.2606 22.0985 7.4306 22.0985C6.5906 22.0985 5.9106 21.4185 5.9106 20.5885ZM17.1606 20.5885C17.1606 19.7485 17.8406 19.0685 18.6806 19.0685C19.5106 19.0685 20.1906 19.7485 20.1906 20.5885C20.1906 21.4185 19.5106 22.0985 18.6806 22.0985C17.8406 22.0985 17.1606 21.4185 17.1606 20.5885Z" fill="currentColor"/>
<path fill-rule="evenodd" clip-rule="evenodd" d="M20.1908 6.34896C20.8008 6.34896 21.2008 6.55896 21.6008 7.01896C22.0008 7.47896 22.0708 8.13896 21.9808 8.73796L21.0308 15.298C20.8508 16.559 19.7708 17.488 18.5008 17.488H7.5908C6.2608 17.488 5.1608 16.468 5.0508 15.149L4.1308 4.24796L2.6208 3.98796C2.2208 3.91796 1.9408 3.52796 2.0108 3.12796C2.0808 2.71796 2.4708 2.44796 2.8808 2.50796L5.2658 2.86796C5.6058 2.92896 5.8558 3.20796 5.8858 3.54796L6.0758 5.78796C6.1058 6.10896 6.3658 6.34896 6.6858 6.34896H20.1908ZM14.1308 11.548H16.9008C17.3208 11.548 17.6508 11.208 17.6508 10.798C17.6508 10.378 17.3208 10.048 16.9008 10.048H14.1308C13.7108 10.048 13.3808 10.378 13.3808 10.798C13.3808 11.208 13.7108 11.548 14.1308 11.548Z" fill="currentColor"/>
</svg>
