<svg width="24" height="24" viewBox="0 0 24 24" fill="none" xmlns="http://www.w3.org/2000/svg">
<path fill-rule="evenodd" clip-rule="evenodd" d="M6.18522 14.2054C-0.24626 6.91826 2.96948 4.73963 3.25403 4.38547C6.32274 1.27315 6.79875 2.68979 9.2095 5.13672C11.2405 7.20803 8.60761 8.19539 9.68658 10.6531L6.18522 14.2054Z" fill="currentColor"/>
<path fill-rule="evenodd" clip-rule="evenodd" d="M12.0903 13.3826C15.3705 16.0763 16.2957 12.2235 18.6191 14.5846C21.0162 17.0315 22.3945 17.5252 19.3551 20.6268C18.9976 20.938 16.6952 24.4689 8.79966 16.7417L12.0903 13.3826Z" fill="currentColor"/>
<path opacity="0.4" d="M21.3748 3.85937V3.86954L11.9586 13.5151L3.44439 22.246C3.27589 22.4086 3.06774 22.5 2.84968 22.5C2.63162 22.5 2.42347 22.4086 2.24506 22.246C1.96753 21.9512 1.92788 21.5141 2.11621 21.1889L2.14594 21.1482C2.16577 21.1167 2.18559 21.0873 2.21532 21.0568L20.1755 2.62954C20.3242 2.46691 20.5422 2.36426 20.7702 2.36426C20.9982 2.36426 21.2162 2.46691 21.3748 2.62954C21.7019 2.97511 21.7019 3.5138 21.3748 3.85937" fill="currentColor"/>
</svg>
