<svg width="24" height="24" viewBox="0 0 24 24" fill="none" xmlns="http://www.w3.org/2000/svg">
<path opacity="0.4" d="M14.4183 5.49C13.9423 5.40206 13.5051 5.70586 13.4144 6.17054C13.3238 6.63522 13.6286 7.08891 14.0917 7.17984C15.4859 7.45166 16.5625 8.53092 16.8354 9.92995V9.93095C16.913 10.3337 17.2676 10.6265 17.6759 10.6265C17.7307 10.6265 17.7855 10.6215 17.8412 10.6115C18.3043 10.5186 18.6091 10.0659 18.5184 9.60018C18.1111 7.51062 16.5027 5.89672 14.4183 5.49" fill="currentColor"/>
<path opacity="0.4" d="M14.3561 2.00793C14.133 1.97595 13.9089 2.04191 13.7306 2.18381C13.5474 2.32771 13.4329 2.53557 13.408 2.76841C13.3552 3.23908 13.6948 3.66479 14.1649 3.71776C17.4065 4.07951 19.9261 6.60477 20.2906 9.85654C20.3394 10.2922 20.7049 10.621 21.1411 10.621C21.174 10.621 21.2059 10.619 21.2387 10.615C21.4668 10.59 21.67 10.4771 21.8134 10.2972C21.9558 10.1174 22.0205 9.89351 21.9946 9.66467C21.5405 5.60746 18.4004 2.45862 14.3561 2.00793" fill="currentColor"/>
<path fill-rule="evenodd" clip-rule="evenodd" d="M11.0317 12.9724C15.0208 16.9604 15.9258 12.3467 18.4656 14.8848C20.9143 17.3328 22.3216 17.8232 19.2192 20.9247C18.8306 21.237 16.3616 24.9943 7.6846 16.3197C-0.993478 7.644 2.76158 5.17244 3.07397 4.78395C6.18387 1.67385 6.66586 3.08938 9.11449 5.53733C11.6544 8.0765 7.04266 8.98441 11.0317 12.9724Z" fill="currentColor"/>
</svg>
