<svg width="24" height="24" viewBox="0 0 24 24" fill="none" xmlns="http://www.w3.org/2000/svg">
<path opacity="0.4" d="M19.3373 5.91772L21.7408 3.50518C21.9084 3.33698 22.0002 3.11407 22.0002 2.87798C22.0002 2.64189 21.9084 2.41898 21.7408 2.25078C21.4067 1.91641 20.8262 1.91641 20.4921 2.25078L18.0886 4.66434L15.684 2.25078C15.3499 1.91641 14.7694 1.91641 14.4353 2.25078C14.2688 2.41898 14.1769 2.64189 14.1769 2.87798C14.1769 3.11407 14.2688 3.33698 14.4353 3.50518L16.8388 5.91772L14.4353 8.33027C14.2688 8.49847 14.1769 8.72138 14.1769 8.95747C14.1769 9.19356 14.2688 9.41647 14.4353 9.58467C14.7694 9.91904 15.3499 9.91904 15.684 9.58467L18.0886 7.17111L20.4921 9.58467C20.6597 9.75186 20.8807 9.84406 21.1169 9.84406C21.3532 9.84406 21.5742 9.75186 21.7408 9.58467C21.9084 9.41647 22.0002 9.19356 22.0002 8.95747C22.0002 8.72138 21.9084 8.49847 21.7408 8.33027L19.3373 5.91772Z" fill="currentColor"/>
<path fill-rule="evenodd" clip-rule="evenodd" d="M11.0317 12.9724C15.0208 16.9604 15.9258 12.3467 18.4656 14.8848C20.9143 17.3328 22.3216 17.8232 19.2192 20.9247C18.8306 21.237 16.3616 24.9943 7.6846 16.3197C-0.993478 7.644 2.76158 5.17244 3.07397 4.78395C6.18387 1.67385 6.66586 3.08938 9.11449 5.53733C11.6544 8.0765 7.04266 8.98441 11.0317 12.9724Z" fill="currentColor"/>
</svg>
