<svg width="24" height="24" viewBox="0 0 24 24" fill="none" xmlns="http://www.w3.org/2000/svg">
<path fill-rule="evenodd" clip-rule="evenodd" d="M16.71 10.0722C16.71 10.5716 17.11 10.9712 17.61 10.9712C18.11 10.9712 18.52 10.5716 18.52 10.0722C18.52 9.57275 18.11 9.16321 17.61 9.16321C17.11 9.16321 16.71 9.57275 16.71 10.0722ZM14.77 16.1055C14.06 16.8147 13.08 17.2542 12 17.2542C10.95 17.2542 9.97 16.8447 9.22 16.1055C8.48 15.3563 8.07 14.3774 8.07 13.3286C8.06 12.2897 8.47 11.3108 9.21 10.5617C9.96 9.81249 10.95 9.40294 12 9.40294C13.05 9.40294 14.04 9.81249 14.78 10.5517C15.52 11.3008 15.93 12.2897 15.93 13.3286C15.92 14.4174 15.48 15.3963 14.77 16.1055ZM12 10.9013C11.35 10.9013 10.74 11.151 10.27 11.6205C9.81 12.08 9.56 12.6893 9.57 13.3186V13.3286C9.57 13.9779 9.82 14.5872 10.28 15.0467C10.74 15.5062 11.35 15.7559 12 15.7559C13.34 15.7559 14.42 14.6671 14.43 13.3286C14.43 12.6793 14.18 12.07 13.72 11.6105C13.26 11.151 12.65 10.9013 12 10.9013Z" fill="currentColor"/>
<path opacity="0.4" d="M17.44 6.2364L17.34 6.01665C17.07 5.44728 16.76 4.78801 16.57 4.40844C16.11 3.50943 15.32 3.00999 14.35 3H9.64C8.67 3.00999 7.89 3.50943 7.43 4.40844C7.23 4.80799 6.89 5.52719 6.61 6.11654L6.55 6.2364C6.52 6.31632 6.44 6.35627 6.36 6.35627C3.95 6.35627 2 8.3141 2 10.7114V16.6448C2 19.0422 3.95 21 6.36 21H17.64C20.04 21 22 19.0422 22 16.6448V10.7114C22 8.3141 20.04 6.35627 17.64 6.35627C17.55 6.35627 17.48 6.30633 17.44 6.2364Z" fill="currentColor"/>
</svg>
