<svg width="24" height="24" viewBox="0 0 24 24" fill="none" xmlns="http://www.w3.org/2000/svg">
<path opacity="0.4" d="M4.7227 21.1672C4.7097 21.1672 4.6977 21.1672 4.6837 21.1662C4.3687 21.1502 4.0597 21.0822 3.7657 20.9632C2.3187 20.3752 1.6207 18.7222 2.2077 17.2762L9.5287 4.45025C9.7807 3.99425 10.1627 3.61225 10.6287 3.35425C11.9937 2.59825 13.7197 3.09525 14.4747 4.45925L21.7477 17.1872C21.9097 17.5682 21.9787 17.8782 21.9957 18.1942C22.0347 18.9502 21.7767 19.6752 21.2707 20.2362C20.7647 20.7972 20.0697 21.1282 19.3147 21.1662L4.7947 21.1672H4.7227Z" fill="currentColor"/>
<path fill-rule="evenodd" clip-rule="evenodd" d="M11.1245 10.0208C11.1245 9.53875 11.5175 9.14575 11.9995 9.14575C12.4815 9.14575 12.8745 9.53875 12.8745 10.0208V12.8488C12.8745 13.3318 12.4815 13.7238 11.9995 13.7238C11.5175 13.7238 11.1245 13.3318 11.1245 12.8488V10.0208ZM11.1245 16.2699C11.1245 15.7849 11.5175 15.3899 11.9995 15.3899C12.4815 15.3899 12.8745 15.7799 12.8745 16.2589C12.8745 16.7519 12.4815 17.1449 11.9995 17.1449C11.5175 17.1449 11.1245 16.7519 11.1245 16.2699Z" fill="currentColor"/>
</svg>
