<svg width="24" height="24" viewBox="0 0 24 24" fill="none" xmlns="http://www.w3.org/2000/svg">
<path opacity="0.4" d="M16.34 1.99976H7.67C4.28 1.99976 2 4.37976 2 7.91976V16.0898C2 19.6198 4.28 21.9998 7.67 21.9998H16.34C19.73 21.9998 22 19.6198 22 16.0898V7.91976C22 4.37976 19.73 1.99976 16.34 1.99976" fill="currentColor"/>
<path fill-rule="evenodd" clip-rule="evenodd" d="M11.1247 8.18933C11.1247 8.67133 11.5157 9.06433 11.9947 9.06433C12.4877 9.06433 12.8797 8.67133 12.8797 8.18933C12.8797 7.70733 12.4877 7.31433 12.0047 7.31433C11.5197 7.31433 11.1247 7.70733 11.1247 8.18933ZM12.8697 11.3621C12.8697 10.8801 12.4767 10.4871 11.9947 10.4871C11.5127 10.4871 11.1197 10.8801 11.1197 11.3621V15.7821C11.1197 16.2641 11.5127 16.6571 11.9947 16.6571C12.4767 16.6571 12.8697 16.2641 12.8697 15.7821V11.3621Z" fill="currentColor"/>
</svg>
