<svg width="24" height="24" viewBox="0 0 24 24" fill="none" xmlns="http://www.w3.org/2000/svg">
<path opacity="0.4" d="M16.3344 1.99976H7.6654C4.2764 1.99976 2.0004 4.37776 2.0004 7.91676V16.0838C2.0004 19.6218 4.2764 21.9998 7.6654 21.9998H16.3334C19.7224 21.9998 22.0004 19.6218 22.0004 16.0838V7.91676C22.0004 4.37776 19.7234 1.99976 16.3344 1.99976" fill="currentColor"/>
<path fill-rule="evenodd" clip-rule="evenodd" d="M11.3142 11.2484H17.0142C17.4242 11.2484 17.7642 11.5884 17.7642 11.9984V13.8484C17.7642 14.2684 17.4242 14.5984 17.0142 14.5984C16.5942 14.5984 16.2642 14.2684 16.2642 13.8484V12.7484H14.9342V13.8484C14.9342 14.2684 14.5942 14.5984 14.1842 14.5984C13.7642 14.5984 13.4342 14.2684 13.4342 13.8484V12.7484H11.3142C10.9942 13.8184 10.0142 14.5984 8.8442 14.5984C7.4042 14.5984 6.2342 13.4384 6.2342 11.9984C6.2342 10.5684 7.4042 9.39844 8.8442 9.39844C10.0142 9.39844 10.9942 10.1784 11.3142 11.2484ZM7.7342 11.9984C7.7342 12.6084 8.2342 13.0984 8.8442 13.0984C9.4442 13.0984 9.9442 12.6084 9.9442 11.9984C9.9442 11.3884 9.4442 10.8984 8.8442 10.8984C8.2342 10.8984 7.7342 11.3884 7.7342 11.9984Z" fill="currentColor"/>
</svg>
