<svg width="24" height="24" viewBox="0 0 24 24" fill="none" xmlns="http://www.w3.org/2000/svg">
<path opacity="0.4" d="M12.0866 22C11.9627 22 11.8389 21.9716 11.7271 21.9137L8.12605 20.0496C7.10422 19.5201 6.30487 18.9259 5.68069 18.2336C4.31455 16.7195 3.55446 14.776 3.54238 12.7599L3.5001 6.12426C3.49507 5.35842 3.98937 4.67103 4.72832 4.41215L11.3406 2.10679C11.7332 1.96656 12.1711 1.9646 12.5708 2.09992L19.2082 4.32684C19.9512 4.57493 20.4535 5.25742 20.4576 6.02228L20.4999 12.6628C20.5129 14.676 19.779 16.6274 18.434 18.1581C17.8169 18.8602 17.0246 19.4632 16.0128 20.0025L12.4439 21.9088C12.3332 21.9686 12.2104 21.999 12.0866 22" fill="currentColor"/>
<path d="M11.3192 14.3209C11.1259 14.3219 10.9327 14.2523 10.7837 14.1091L8.86683 12.2656C8.57085 11.9793 8.56783 11.5145 8.86079 11.2262C9.15375 10.9369 9.63195 10.934 9.92894 11.2193L11.3082 12.5451L14.6757 9.22479C14.9697 8.93552 15.4479 8.93258 15.7438 9.21793C16.0408 9.50426 16.0439 9.97004 15.7509 10.2574L11.8518 14.1022C11.7048 14.2474 11.5125 14.3199 11.3192 14.3209" fill="currentColor"/>
</svg>
