<svg width="24" height="24" viewBox="0 0 24 24" fill="none" xmlns="http://www.w3.org/2000/svg">
<path opacity="0.4" d="M12.0861 22C11.9622 22 11.8394 21.9716 11.7276 21.9137L8.12633 20.0496C7.10342 19.5201 6.30403 18.9259 5.68082 18.2336C4.31359 16.7195 3.55447 14.776 3.54138 12.7599L3.5001 6.12426C3.49507 5.35842 3.9884 4.67103 4.72738 4.41215L11.34 2.10679C11.7337 1.96656 12.1716 1.9646 12.5703 2.09992L19.2081 4.32684C19.9511 4.57493 20.4535 5.25742 20.4576 6.02228L20.4999 12.6628C20.5129 14.676 19.78 16.6274 18.4349 18.1581C17.8167 18.8602 17.0254 19.4632 16.0136 20.0025L12.4445 21.9088C12.3337 21.9686 12.2099 21.999 12.0861 22" fill="currentColor"/>
<path d="M13.0678 11.7249L14.426 10.4021C14.721 10.1148 14.721 9.65001 14.426 9.3627C14.131 9.07539 13.6527 9.07539 13.3577 9.3627L11.9996 10.6845L10.6424 9.3627C10.3474 9.07539 9.8692 9.07539 9.57421 9.3627C9.27922 9.65001 9.27922 10.1148 9.57421 10.4021L10.9324 11.7249L9.57421 13.0478C9.27922 13.3351 9.27922 13.7999 9.57421 14.0872C9.72221 14.2313 9.91551 14.3029 10.1088 14.3029C10.3011 14.3029 10.4944 14.2313 10.6424 14.0872L11.9996 12.7653L13.3577 14.0872C13.5057 14.2313 13.698 14.3029 13.8914 14.3029C14.0847 14.3029 14.278 14.2313 14.426 14.0872C14.721 13.7999 14.721 13.3351 14.426 13.0478L13.0678 11.7249Z" fill="currentColor"/>
</svg>
