<svg width="24" height="24" viewBox="0 0 24 24" fill="none" xmlns="http://www.w3.org/2000/svg">
<path opacity="0.4" d="M16.3403 1.99976H7.6703C4.2803 1.99976 2.0003 4.37976 2.0003 7.91976V16.0898C2.0003 19.6198 4.2803 21.9998 7.6703 21.9998H16.3403C19.7303 21.9998 22.0003 19.6198 22.0003 16.0898V7.91976C22.0003 4.37976 19.7303 1.99976 16.3403 1.99976" fill="currentColor"/>
<path d="M10.8134 15.2478C10.5894 15.2478 10.3654 15.1628 10.1944 14.9918L7.8214 12.6188C7.4794 12.2768 7.4794 11.7228 7.8214 11.3818C8.1634 11.0398 8.7164 11.0388 9.0584 11.3808L10.8134 13.1358L14.9414 9.00784C15.2834 8.66584 15.8364 8.66584 16.1784 9.00784C16.5204 9.34984 16.5204 9.90384 16.1784 10.2458L11.4324 14.9918C11.2614 15.1628 11.0374 15.2478 10.8134 15.2478" fill="currentColor"/>
</svg>
