<svg width="24" height="24" viewBox="0 0 24 24" fill="none" xmlns="http://www.w3.org/2000/svg">
<path opacity="0.4" d="M21.9998 11.9999C21.9998 17.5239 17.5228 21.9999 11.9998 21.9999C6.47682 21.9999 1.99982 17.5239 1.99982 11.9999C1.99982 6.47788 6.47682 1.99988 11.9998 1.99988C17.5228 1.99988 21.9998 6.47788 21.9998 11.9999" fill="currentColor"/>
<path d="M15.5735 15.8144C15.4425 15.8144 15.3105 15.7804 15.1895 15.7094L11.2635 13.3674C11.0375 13.2314 10.8985 12.9864 10.8985 12.7224V7.67542C10.8985 7.26142 11.2345 6.92542 11.6485 6.92542C12.0625 6.92542 12.3985 7.26142 12.3985 7.67542V12.2964L15.9585 14.4194C16.3135 14.6324 16.4305 15.0924 16.2185 15.4484C16.0775 15.6834 15.8285 15.8144 15.5735 15.8144" fill="currentColor"/>
</svg>
