<svg width="24" height="24" viewBox="0 0 24 24" fill="none" xmlns="http://www.w3.org/2000/svg">
<path opacity="0.4" d="M8.23907 8.70907V7.36726C8.24923 5.37044 9.92586 3.73939 11.9988 3.73939C13.584 3.73939 15.0065 4.72339 15.5248 6.19541C15.6975 6.65262 16.2056 6.89017 16.6629 6.73213C16.8864 6.66156 17.0693 6.50253 17.1709 6.29381C17.2725 6.08508 17.2929 5.84654 17.2116 5.62787C16.4393 3.46208 14.3461 2 11.9785 2C8.95036 2 6.48115 4.41626 6.46082 7.38714V8.91084L8.23907 8.70907Z" fill="currentColor"/>
<path fill-rule="evenodd" clip-rule="evenodd" d="M7.7688 8.71118H16.2312C18.5886 8.71118 20.5 10.5808 20.5 12.8867V17.8246C20.5 20.1305 18.5886 22.0001 16.2312 22.0001H7.7688C5.41136 22.0001 3.5 20.1305 3.5 17.8246V12.8867C3.5 10.5808 5.41136 8.71118 7.7688 8.71118ZM11.9949 17.3286C12.4928 17.3286 12.8891 16.941 12.8891 16.454V14.2474C12.8891 13.7703 12.4928 13.3827 11.9949 13.3827C11.5072 13.3827 11.1109 13.7703 11.1109 14.2474V16.454C11.1109 16.941 11.5072 17.3286 11.9949 17.3286Z" fill="currentColor"/>
</svg>
