<svg width="24" height="24" viewBox="0 0 24 24" fill="none" xmlns="http://www.w3.org/2000/svg">
<path opacity="0.4" d="M6.447 22C3.996 22 2 19.9698 2 17.4755V12.5144C2 10.0252 3.99 8 6.437 8L17.553 8C20.005 8 22 10.0302 22 12.5256V17.4846C22 19.9748 20.01 22 17.563 22H16.623H6.447Z" fill="currentColor"/>
<path d="M11.4548 2.22103L8.5458 5.06682C8.2458 5.36094 8.2458 5.83427 8.5478 6.12742C8.8498 6.41959 9.3368 6.41862 9.6368 6.12547L11.2298 4.56623V6.06119V14.4515C11.2298 14.8654 11.5748 15.2014 11.9998 15.2014C12.4258 15.2014 12.7698 14.8654 12.7698 14.4515V4.56623L14.3628 6.12547C14.6628 6.41862 15.1498 6.41959 15.4518 6.12742C15.6028 5.98036 15.6788 5.78849 15.6788 5.59566C15.6788 5.40477 15.6028 5.21291 15.4538 5.06682L12.5458 2.22103C12.4008 2.07981 12.2048 1.99995 11.9998 1.99995C11.7958 1.99995 11.5998 2.07981 11.4548 2.22103" fill="currentColor"/>
</svg>
