<svg width="24" height="24" viewBox="0 0 24 24" fill="none" xmlns="http://www.w3.org/2000/svg">
<path opacity="0.4" fill-rule="evenodd" clip-rule="evenodd" d="M15.858 7.55636C15.8762 7.68967 15.8934 7.81524 15.9025 7.98142L6.2902 17.5926H6.06789C4.65991 17.5926 3.63304 16.5976 3.44249 15.0522C3.23076 13.5068 3.27311 10.8605 3.44249 9.45274C3.64363 7.992 4.72343 6.98643 6.06789 6.98643H7.89931L11.3928 4.12741C11.8162 3.76858 12.5679 3.42986 13.1501 3.41821C14.2087 3.41821 15.1827 4.16022 15.532 5.34575C15.6696 5.84219 15.7226 6.34074 15.7649 6.81601L15.8496 7.49451C15.8524 7.51542 15.8552 7.53598 15.858 7.55636ZM14.8809 13.7315C15.0248 13.5907 15.3435 13.4912 15.4875 13.5272C15.877 13.6267 15.9522 14.1846 15.9469 14.6228C15.9289 15.8951 15.8855 16.78 15.8177 17.3273L15.7701 17.7782L15.7693 17.7866C15.724 18.2402 15.6772 18.7096 15.5436 19.2103C15.19 20.3937 14.2446 21.1622 13.1712 21.1622C13.1352 21.1622 13.1002 21.1622 13.0643 21.1612C12.4714 21.1612 11.8267 20.8055 11.4615 20.4954L10.1604 19.4887C9.66712 19.1214 9.81215 18.534 10.0895 18.1942C10.2966 17.9413 12.7844 15.6581 14.0922 14.4578C14.5363 14.0502 14.8444 13.7675 14.8809 13.7315Z" fill="currentColor"/>
<path d="M21.7275 3.26979C21.3538 2.90884 20.7801 2.91095 20.4201 3.27085L3.27035 20.4186C2.90936 20.7795 2.90936 21.3543 3.27352 21.7322C3.45984 21.9047 3.69062 22 3.92458 22C4.16383 22 4.40943 21.8994 4.57987 21.729L21.7286 4.58127C22.0906 4.21926 22.0906 3.63285 21.7275 3.26979" fill="currentColor"/>
</svg>
