<svg width="24" height="24" viewBox="0 0 24 24" fill="none" xmlns="http://www.w3.org/2000/svg">
<path d="M8.8808 3.88496C8.49144 4.27664 8.49331 4.9098 8.88499 5.29917C9.27667 5.68853 9.90983 5.68666 10.2992 5.29498L8.8808 3.88496ZM11 7.99997L11.0042 6.99997H11V7.99997ZM2 6.99997C1.44772 6.99997 1 7.44768 1 7.99997C1 8.55225 1.44772 8.99997 2 8.99997V6.99997ZM13.2992 18.705C12.9098 18.3133 12.2767 18.3114 11.885 18.7008C11.4933 19.0901 11.4914 19.7233 11.8808 20.115L13.2992 18.705ZM14 16V17L14.0042 17L14 16ZM2 15C1.44772 15 1 15.4477 1 16C1 16.5523 1.44772 17 2 17V15ZM17.0238 7.02197C16.6328 7.412 16.632 8.04516 17.022 8.43618C17.412 8.8272 18.0452 8.828 18.4362 8.43797L17.0238 7.02197ZM19.5 12V13L19.5018 13L19.5 12ZM2 11C1.44772 11 1 11.4477 1 12C1 12.5523 1.44772 13 2 13V11ZM10.2992 5.29498C10.6189 4.97336 11.115 4.90715 11.5079 5.13367L12.5069 3.40105C11.3283 2.72149 9.83995 2.92011 8.8808 3.88496L10.2992 5.29498ZM11.5079 5.13367C11.9008 5.36019 12.092 5.82273 11.9739 6.26056L13.9048 6.78169C14.2593 5.46821 13.6855 4.08061 12.5069 3.40105L11.5079 5.13367ZM11.9739 6.26056C11.8557 6.69838 11.4577 7.00188 11.0042 6.99998L10.9958 8.99996C12.3563 9.00567 13.5503 8.09518 13.9048 6.78169L11.9739 6.26056ZM11 6.99997H2V8.99997H11V6.99997ZM11.8808 20.115C12.84 21.0798 14.3283 21.2785 15.5069 20.5989L14.5079 18.8663C14.115 19.0928 13.6189 19.0266 13.2992 18.705L11.8808 20.115ZM15.5069 20.5989C16.6855 19.9193 17.2593 18.5317 16.9048 17.2182L14.9739 17.7394C15.092 18.1772 14.9008 18.6397 14.5079 18.8663L15.5069 20.5989ZM16.9048 17.2182C16.5503 15.9048 15.3563 14.9943 13.9958 15L14.0042 17C14.4577 16.9981 14.8557 17.3016 14.9739 17.7394L16.9048 17.2182ZM14 15H2V17H14V15ZM18.4362 8.43797C18.9165 7.95892 19.6585 7.86181 20.2458 8.20112L21.2463 6.46932C19.8757 5.67758 18.1444 5.90418 17.0238 7.02197L18.4362 8.43797ZM20.2458 8.20112C20.8332 8.54044 21.1198 9.23172 20.9447 9.88709L22.877 10.4032C23.2854 8.87406 22.6168 7.26106 21.2463 6.46932L20.2458 8.20112ZM20.9447 9.88709C20.7697 10.5424 20.1765 10.9988 19.4982 11L19.5018 13C21.0846 12.9971 22.4685 11.9324 22.877 10.4032L20.9447 9.88709ZM19.5 11H2V13H19.5V11Z" fill="currentColor"/>
</svg>
