<svg width="24" height="25" viewBox="0 0 24 25" fill="none" xmlns="http://www.w3.org/2000/svg">
<path d="M1 2L23 24" stroke="currentColor" stroke-width="2" stroke-linecap="round" stroke-linejoin="round"/>
<path d="M10 10C10 9.44773 9.55228 9.00002 9 9.00002C8.44772 9.00002 8 9.44773 8 10H10ZM9 13H8L8 13.0009L9 13ZM14.8267 15.8276C15.2174 15.4373 15.2178 14.8041 14.8275 14.4133C14.4373 14.0226 13.8041 14.0222 13.4133 14.4125L14.8267 15.8276ZM14.0001 10.34C14.0001 10.8923 14.4478 11.34 15.0001 11.34C15.5523 11.34 16.0001 10.8923 16.0001 10.34H14.0001ZM15.0001 5.00001L14.0001 4.99901V5.00001H15.0001ZM8.08006 4.20102C7.97016 4.74226 8.31982 5.27011 8.86106 5.38001C9.4023 5.48992 9.93016 5.14025 10.0401 4.59901L8.08006 4.20102ZM8 10V13H10V10H8ZM8 13.0009C8.00142 14.6177 8.97597 16.0746 10.4697 16.6931L11.2349 14.8452C10.488 14.536 10.0007 13.8075 10 12.9991L8 13.0009ZM10.4697 16.6931C11.9635 17.3116 13.6827 16.9701 14.8267 15.8276L13.4133 14.4125C12.8414 14.9837 11.9818 15.1545 11.2349 14.8452L10.4697 16.6931ZM16.0001 10.34V5.00001H14.0001V10.34H16.0001ZM16.0001 5.00102C16.0021 2.94601 14.4467 1.22378 12.4021 1.01725L12.2011 3.00712C13.2234 3.11039 14.0011 3.9715 14.0001 4.99901L16.0001 5.00102ZM12.4021 1.01725C10.3574 0.810723 8.489 2.1871 8.08006 4.20102L10.0401 4.59901C10.2445 3.59205 11.1788 2.90386 12.2011 3.00712L12.4021 1.01725Z" fill="currentColor"/>
<path d="M17.7143 18.6498C18.1008 18.2553 18.0943 17.6222 17.6998 17.2357C17.3053 16.8492 16.6721 16.8557 16.2856 17.2502L17.7143 18.6498ZM4.99994 13L5.99994 13.0073V13H4.99994ZM5.99994 11C5.99994 10.4477 5.55223 10 4.99994 10C4.44766 10 3.99994 10.4477 3.99994 11H5.99994ZM19.9999 11C19.9999 10.4477 19.5522 10 18.9999 10C18.4476 10 17.9999 10.4477 17.9999 11H19.9999ZM18.9999 13L19.9999 13.0009V13H18.9999ZM17.9056 14.0534C17.8081 14.597 18.1697 15.1168 18.7133 15.2143C19.2569 15.3118 19.7767 14.9502 19.8742 14.4066L17.9056 14.0534ZM16.2856 17.2502C14.5739 18.9974 11.9729 19.5306 9.71177 18.5978L8.94911 20.4467C11.964 21.6903 15.4319 20.9794 17.7143 18.6498L16.2856 17.2502ZM9.71177 18.5978C7.45063 17.6651 5.98202 15.4532 5.99992 13.0073L3.99997 12.9927C3.97611 16.2539 5.93426 19.2031 8.94911 20.4467L9.71177 18.5978ZM5.99994 13V11H3.99994V13H5.99994ZM17.9999 11V13H19.9999V11H17.9999ZM17.9999 12.9991C17.9996 13.3526 17.968 13.7055 17.9056 14.0534L19.8742 14.4066C19.9574 13.9426 19.9995 13.4722 19.9999 13.0009L17.9999 12.9991Z" fill="currentColor"/>
<path d="M12 20V24" stroke="currentColor" stroke-width="2" stroke-linecap="round" stroke-linejoin="round"/>
<path d="M8 24H16" stroke="currentColor" stroke-width="2" stroke-linecap="round" stroke-linejoin="round"/>
</svg>
