<svg width="24" height="24" viewBox="0 0 24 24" fill="none" xmlns="http://www.w3.org/2000/svg">
<path d="M9 17H10C10 16.4477 9.55228 16 9 16V17ZM21 15H22C22 14.4477 21.5523 14 21 14V15ZM9 16H5V18H9V16ZM5 16C3.34315 16 2 17.3431 2 19H4C4 18.4477 4.44772 18 5 18V16ZM2 19C2 20.6569 3.34315 22 5 22V20C4.44772 20 4 19.5523 4 19H2ZM5 22H7V20H5V22ZM7 22C8.65685 22 10 20.6569 10 19H8C8 19.5523 7.55228 20 7 20V22ZM10 19V17H8V19H10ZM21 14H17V16H21V14ZM17 14C15.3431 14 14 15.3431 14 17H16C16 16.4477 16.4477 16 17 16V14ZM14 17C14 18.6569 15.3431 20 17 20V18C16.4477 18 16 17.5523 16 17H14ZM17 20H19V18H17V20ZM19 20C20.6569 20 22 18.6569 22 17H20C20 17.5523 19.5523 18 19 18V20ZM22 17V15H20V17H22Z" fill="currentColor"/>
<path d="M9 17V5L21 3V15" stroke="currentColor" stroke-width="2" stroke-linecap="round" stroke-linejoin="round"/>
</svg>
