<svg width="24" height="24" viewBox="0 0 24 24" fill="none" xmlns="http://www.w3.org/2000/svg">
<path d="M5.00005 19C5.55233 19 6.00005 18.5523 6.00005 18C6.00005 17.4477 5.55233 17 5.00005 17V19ZM1.00005 16H4.57764e-05H1.00005ZM6.19005 7C6.74233 7 7.19005 6.55228 7.19005 6C7.19005 5.44772 6.74233 5 6.19005 5V7ZM15.0001 5C14.4478 5 14.0001 5.44772 14.0001 6C14.0001 6.55228 14.4478 7 15.0001 7V5ZM13.8101 17C13.2578 17 12.8101 17.4477 12.8101 18C12.8101 18.5523 13.2578 19 13.8101 19V17ZM5.00005 17H3.00005V19H5.00005V17ZM3.00005 17C2.44776 17 2.00005 16.5523 2.00005 16H4.57764e-05C4.57764e-05 17.6569 1.34319 19 3.00005 19V17ZM2.00005 16V8H4.57764e-05V16H2.00005ZM2.00005 8C2.00005 7.44772 2.44776 7 3.00005 7V5C1.34319 5 4.57764e-05 6.34315 4.57764e-05 8H2.00005ZM3.00005 7H6.19005V5H3.00005V7ZM15.0001 7H17.0001V5H15.0001V7ZM17.0001 7C17.5524 7 18.0001 7.44772 18.0001 8H20.0001C20.0001 6.34315 18.657 5 17.0001 5V7ZM18.0001 8V16H20.0001V8H18.0001ZM18.0001 16C18.0001 16.5523 17.5524 17 17.0001 17V19C18.657 19 20.0001 17.6569 20.0001 16H18.0001ZM17.0001 17H13.8101V19H17.0001V17Z" fill="currentColor"/>
<path d="M23 13V11" stroke="currentColor" stroke-width="2" stroke-linecap="round" stroke-linejoin="round"/>
<path d="M11 6L7 12H13L9 18" stroke="currentColor" stroke-width="2" stroke-linecap="round" stroke-linejoin="round"/>
</svg>
