<svg width="24" height="24" viewBox="0 0 24 24" fill="none" xmlns="http://www.w3.org/2000/svg">
<path d="M14.05 6L14.2415 5.01851C13.8098 4.93429 13.3738 5.14198 13.1672 5.53022C12.9606 5.91847 13.0319 6.39612 13.3429 6.70711L14.05 6ZM18 9.95L17.2929 10.6571C17.6039 10.9681 18.0815 11.0394 18.4698 10.8328C18.858 10.6262 19.0657 10.1902 18.9815 9.75851L18 9.95ZM14.05 2L14.1604 1.00611C13.7382 0.959211 13.3325 1.18417 13.1486 1.5671C12.9647 1.95004 13.0428 2.40736 13.3433 2.70755L14.05 2ZM22 9.94L21.2933 10.6476C21.5939 10.9477 22.0513 11.0253 22.434 10.8409C22.8167 10.6565 23.0412 10.2505 22.9937 9.82834L22 9.94ZM21 20.92H20L20 20.9241L21 20.92ZM18.82 22.92L18.712 23.9142C18.718 23.9148 18.724 23.9154 18.73 23.9159L18.82 22.92ZM10.19 19.85L10.7341 19.0109L10.7263 19.006L10.19 19.85ZM4.19 13.85L5.03405 13.3137L5.02928 13.3063L4.19 13.85ZM1.12 5.18L0.124059 5.27C0.12453 5.2752 0.125041 5.2804 0.125593 5.2856L1.12 5.18ZM3.11 3V2L3.10906 2L3.11 3ZM6.11 3V4.00005L6.11984 3.99995L6.11 3ZM8.11 4.72L9.10146 4.58924L9.10016 4.58005L8.11 4.72ZM8.81 7.53L7.8731 7.87961L7.87395 7.88186L8.81 7.53ZM8.36 9.64L9.06712 10.3471L9.07105 10.3431L8.36 9.64ZM7.09 10.91L6.38289 10.2029C6.06458 10.5212 5.99819 11.013 6.22071 11.4043L7.09 10.91ZM13.09 16.91L12.5957 17.7793C12.987 18.0018 13.4788 17.9354 13.7971 17.6171L13.09 16.91ZM14.36 15.64L13.6569 14.9289L13.6529 14.9329L14.36 15.64ZM16.47 15.19L16.1181 16.1261L16.1204 16.1269L16.47 15.19ZM19.28 15.89L19.4197 14.8998L19.4108 14.8986L19.28 15.89ZM13.8585 6.98149C15.4569 7.29335 16.7067 8.5431 17.0185 10.1415L18.9815 9.75851C18.5137 7.36092 16.6391 5.48629 14.2415 5.01851L13.8585 6.98149ZM18.7071 9.24289L14.7571 5.29289L13.3429 6.70711L17.2929 10.6571L18.7071 9.24289ZM13.9396 2.99389C17.6547 3.40661 20.5889 6.33703 21.0063 10.0517L22.9937 9.82834C22.472 5.18505 18.8044 1.52202 14.1604 1.00611L13.9396 2.99389ZM22.7067 9.23245L14.7567 1.29245L13.3433 2.70755L21.2933 10.6476L22.7067 9.23245ZM20 17.92V20.92H22V17.92H20ZM20 20.9241C20.0012 21.2056 19.8835 21.4746 19.676 21.665L21.0281 23.1387C21.6506 22.5677 22.0034 21.7607 22 20.9159L20 20.9241ZM19.676 21.665C19.4686 21.8553 19.1904 21.9494 18.91 21.9241L18.73 23.9159C19.5713 23.992 20.4057 23.7098 21.0281 23.1387L19.676 21.665ZM18.928 21.9259C16.0063 21.6084 13.1999 20.61 10.7341 19.011L9.6459 20.689C12.3741 22.4583 15.4793 23.5629 18.712 23.9142L18.928 21.9259ZM10.7263 19.006C8.43406 17.5494 6.49062 15.6059 5.03401 13.3137L3.34599 14.3863C4.96006 16.9264 7.1136 19.0799 9.65368 20.694L10.7263 19.006ZM5.02928 13.3063C3.42466 10.8293 2.42607 8.00921 2.11441 5.0744L0.125593 5.2856C0.470422 8.53278 1.5753 11.6531 3.35072 14.3937L5.02928 13.3063ZM2.11594 5.09C2.09068 4.81044 2.18408 4.53313 2.37333 4.32581L0.896208 2.97743C0.328467 3.59938 0.0482694 4.43131 0.124059 5.27L2.11594 5.09ZM2.37333 4.32581C2.56257 4.11849 2.83024 4.00026 3.11094 4L3.10906 2C2.26695 2.00079 1.46395 2.35548 0.896208 2.97743L2.37333 4.32581ZM3.11 4H6.11V2H3.11V4ZM6.11984 3.99995C6.62177 3.99501 7.04959 4.36294 7.11984 4.85995L9.10016 4.58005C8.88941 3.089 7.60596 1.98523 6.10016 2.00005L6.11984 3.99995ZM7.11859 4.85076C7.25507 5.8856 7.50819 6.90167 7.8731 7.8796L9.7469 7.1804C9.43472 6.34378 9.21818 5.47454 9.10142 4.58924L7.11859 4.85076ZM7.87395 7.88186C8.01132 8.2473 7.92346 8.65926 7.64895 8.93686L9.07105 10.3431C9.89458 9.51035 10.1582 8.27445 9.74605 7.17814L7.87395 7.88186ZM7.65289 8.93289L6.38289 10.2029L7.79711 11.6171L9.06711 10.3471L7.65289 8.93289ZM6.22071 11.4043C7.73323 14.0643 9.93569 16.2668 12.5957 17.7793L13.5843 16.0407C11.2372 14.7061 9.29388 12.7628 7.9593 10.4157L6.22071 11.4043ZM13.7971 17.6171L15.0671 16.3471L13.6529 14.9329L12.3829 16.2029L13.7971 17.6171ZM15.0631 16.3511C15.3407 16.0765 15.7527 15.9887 16.1181 16.1261L16.8219 14.2539C15.7255 13.8418 14.4897 14.1054 13.6569 14.9289L15.0631 16.3511ZM16.1204 16.1269C17.0983 16.4918 18.1144 16.7449 19.1492 16.8814L19.4108 14.8986C18.5255 14.7818 17.6562 14.5653 16.8196 14.2531L16.1204 16.1269ZM19.1403 16.8802C19.6431 16.9511 20.0129 17.3876 20.0003 17.8952L21.9997 17.9448C22.0375 16.422 20.928 15.1126 19.4197 14.8998L19.1403 16.8802Z" fill="currentColor"/>
</svg>
