<svg width="25" height="24" viewBox="0 0 25 24" fill="none" xmlns="http://www.w3.org/2000/svg">
<path fill-rule="evenodd" clip-rule="evenodd" d="M22.65 14.39L12 22.13L1.34996 14.39C1.05707 14.1746 0.935999 13.7952 1.04996 13.45L2.26996 9.66999L4.70996 2.15999C4.73362 2.0988 4.7713 2.044 4.81996 1.99999C4.98419 1.84998 5.23572 1.84998 5.39996 1.99999C5.45134 2.04966 5.4892 2.11161 5.50996 2.17999L7.94996 9.66999H16.05L18.49 2.15999C18.5136 2.0988 18.5513 2.044 18.6 1.99999C18.7642 1.84998 19.0157 1.84998 19.18 1.99999C19.2313 2.04966 19.2692 2.11161 19.29 2.17999L21.73 9.68999L23 13.45C23.1037 13.8062 22.9614 14.1883 22.65 14.39Z" stroke="currentColor" stroke-width="2" stroke-linecap="round" stroke-linejoin="round"/>
</svg>
