<svg width="24" height="24" viewBox="0 0 24 24" fill="none" xmlns="http://www.w3.org/2000/svg">
<path fill-rule="evenodd" clip-rule="evenodd" d="M2 7C2 4.23858 4.23858 2 7 2H17C19.7614 2 22 4.23858 22 7V17C22 19.7614 19.7614 22 17 22H7C4.23858 22 2 19.7614 2 17V7Z" stroke="currentColor" stroke-width="2" stroke-linecap="round" stroke-linejoin="round"/>
<path fill-rule="evenodd" clip-rule="evenodd" d="M16 11.37C16.2531 13.077 15.383 14.7538 13.8416 15.5297C12.3002 16.3055 10.435 16.0054 9.21483 14.7852C7.99462 13.5649 7.69449 11.6998 8.47032 10.1584C9.24615 8.61697 10.923 7.74687 12.63 7.99999C14.373 8.25846 15.7415 9.62702 16 11.37Z" stroke="currentColor" stroke-width="2" stroke-linecap="round" stroke-linejoin="round"/>
</svg>
