<svg width="24" height="24" viewBox="0 0 24 24" fill="none" xmlns="http://www.w3.org/2000/svg">
<path d="M8 4C8.55228 4 9 3.55228 9 3C9 2.44772 8.55228 2 8 2V4ZM2 8C2 8.55228 2.44772 9 3 9C3.55228 9 4 8.55228 4 8H2ZM20 8C20 8.55228 20.4477 9 21 9C21.5523 9 22 8.55228 22 8H20ZM16 2C15.4477 2 15 2.44772 15 3C15 3.55228 15.4477 4 16 4V2ZM16 20C15.4477 20 15 20.4477 15 21C15 21.5523 15.4477 22 16 22V20ZM22 16C22 15.4477 21.5523 15 21 15C20.4477 15 20 15.4477 20 16H22ZM4 16C4 15.4477 3.55228 15 3 15C2.44772 15 2 15.4477 2 16H4ZM8 22C8.55228 22 9 21.5523 9 21C9 20.4477 8.55228 20 8 20V22ZM8 2H5V4H8V2ZM5 2C3.34315 2 2 3.34315 2 5H4C4 4.44772 4.44772 4 5 4V2ZM2 5V8H4V5H2ZM22 8V5H20V8H22ZM22 5C22 3.34315 20.6569 2 19 2V4C19.5523 4 20 4.44772 20 5H22ZM19 2H16V4H19V2ZM16 22H19V20H16V22ZM19 22C20.6569 22 22 20.6569 22 19H20C20 19.5523 19.5523 20 19 20V22ZM22 19V16H20V19H22ZM2 16V19H4V16H2ZM2 19C2 20.6569 3.34315 22 5 22V20C4.44772 20 4 19.5523 4 19H2ZM5 22H8V20H5V22Z" fill="currentColor"/>
</svg>
