<svg width="24" height="24" viewBox="0 0 24 24" fill="none" xmlns="http://www.w3.org/2000/svg">
<path d="M1 1L23 23" stroke="currentColor" stroke-width="2" stroke-linecap="round" stroke-linejoin="round"/>
<path d="M21 22C21.5523 22 22 21.5523 22 21C22 20.4477 21.5523 20 21 20V22ZM1 19H0H1ZM6 7C6.55228 7 7 6.55228 7 6C7 5.44772 6.55228 5 6 5V7ZM9 2C8.44772 2 8 2.44772 8 3C8 3.55228 8.44772 4 9 4V2ZM15 3L15.8321 2.4453C15.6466 2.1671 15.3344 2 15 2V3ZM17 6L16.1679 6.5547C16.3534 6.8329 16.6656 7 17 7V6ZM22 17.34C22 17.8923 22.4477 18.34 23 18.34C23.5523 18.34 24 17.8923 24 17.34H22ZM16.1053 15.8447C16.4172 15.3889 16.3005 14.7666 15.8447 14.4547C15.3889 14.1428 14.7666 14.2595 14.4547 14.7153L16.1053 15.8447ZM10.2847 10.5453C10.7405 10.2334 10.8572 9.61108 10.5453 9.15529C10.2334 8.69949 9.61108 8.58283 9.15529 8.89471L10.2847 10.5453ZM21 20H3V22H21V20ZM3 20C2.44772 20 2 19.5523 2 19H0C0 20.6569 1.34315 22 3 22V20ZM2 19V8H0V19H2ZM2 8C2 7.44772 2.44772 7 3 7V5C1.34315 5 0 6.34315 0 8H2ZM3 7H6V5H3V7ZM9 4H15V2H9V4ZM14.1679 3.5547L16.1679 6.5547L17.8321 5.4453L15.8321 2.4453L14.1679 3.5547ZM17 7H21V5H17V7ZM21 7C21.5523 7 22 7.44772 22 8H24C24 6.34315 22.6569 5 21 5V7ZM22 8V17.34H24V8H22ZM14.4547 14.7153C13.774 15.7101 12.5641 16.2008 11.3828 15.9613L10.9854 17.9215C12.9542 18.3206 14.9708 17.5027 16.1053 15.8447L14.4547 14.7153ZM11.3828 15.9613C10.2014 15.7218 9.27816 14.7986 9.03866 13.6172L7.07854 14.0146C7.47771 15.9835 9.01649 17.5223 10.9854 17.9215L11.3828 15.9613ZM9.03866 13.6172C8.79916 12.4359 9.28994 11.226 10.2847 10.5453L9.15529 8.89471C7.49734 10.0292 6.67937 12.0458 7.07854 14.0146L9.03866 13.6172Z" fill="currentColor"/>
</svg>
