<svg width="24" height="24" viewBox="0 0 24 24" fill="none" xmlns="http://www.w3.org/2000/svg">
<path d="M18 2L22 6L18 10" stroke="currentColor" stroke-width="2" stroke-linecap="round" stroke-linejoin="round"/>
<path d="M14 6H22" stroke="currentColor" stroke-width="2" stroke-linecap="round" stroke-linejoin="round"/>
<path fill-rule="evenodd" clip-rule="evenodd" d="M21 17.92V20.92C21.0023 21.4831 20.767 22.0211 20.3521 22.4018C19.9371 22.7825 19.3809 22.9707 18.82 22.92C15.7428 22.5856 12.787 21.5341 10.19 19.85C7.77383 18.3146 5.72534 16.2661 4.19 13.85C2.49998 11.2412 1.44824 8.27097 1.12 5.17998C1.06947 4.62085 1.25627 4.06623 1.63477 3.6516C2.01326 3.23697 2.5486 3.0005 3.11 2.99998H6.11C7.11387 2.9901 7.9695 3.72594 8.11 4.71998C8.23662 5.68004 8.47145 6.6227 8.81 7.52998C9.08474 8.26085 8.90902 9.08478 8.36 9.63998L7.09 10.91C8.51356 13.4135 10.5865 15.4864 13.09 16.91L14.36 15.64C14.9152 15.091 15.7391 14.9152 16.47 15.19C17.3773 15.5285 18.3199 15.7634 19.28 15.89C20.2856 16.0318 21.0252 16.9048 21 17.92Z" stroke="currentColor" stroke-width="2" stroke-linecap="round" stroke-linejoin="round"/>
</svg>
