<svg width="24" height="24" viewBox="0 0 24 24" fill="none" xmlns="http://www.w3.org/2000/svg">
<path fill-rule="evenodd" clip-rule="evenodd" d="M11 5L6 9H2V15H6L11 19V5V5Z" stroke="currentColor" stroke-width="2" stroke-linecap="round" stroke-linejoin="round"/>
<path d="M19.7772 4.22299C19.3867 3.83241 18.7536 3.83231 18.363 4.22278C17.9724 4.61324 17.9723 5.24641 18.3628 5.63699L19.7772 4.22299ZM18.3628 18.363C17.9723 18.7536 17.9724 19.3867 18.363 19.7772C18.7536 20.1677 19.3867 20.1676 19.7772 19.777L18.3628 18.363ZM16.2472 7.75299C15.8567 7.36241 15.2236 7.36231 14.833 7.75278C14.4424 8.14324 14.4423 8.77641 14.8328 9.16699L16.2472 7.75299ZM14.8328 14.823C14.4423 15.2136 14.4424 15.8467 14.833 16.2372C15.2236 16.6277 15.8567 16.6276 16.2472 16.237L14.8328 14.823ZM18.3628 5.63699C21.8762 9.15149 21.8762 14.8485 18.3628 18.363L19.7772 19.777C24.0714 15.4815 24.0714 8.51849 19.7772 4.22299L18.3628 5.63699ZM14.8328 9.16699C16.3943 10.729 16.3943 13.261 14.8328 14.823L16.2472 16.237C18.5895 13.894 18.5895 10.096 16.2472 7.75299L14.8328 9.16699Z" fill="currentColor"/>
</svg>
