<svg width="24" height="24" viewBox="0 0 24 24" fill="none" xmlns="http://www.w3.org/2000/svg">
<path d="M23.0001 12V13C23.2818 13 23.5505 12.8811 23.74 12.6727C23.9295 12.4642 24.0223 12.1854 23.9955 11.905L23.0001 12ZM1.00006 12L0.00458592 11.905C-0.0221863 12.1854 0.0705988 12.4642 0.260121 12.6727C0.449643 12.8811 0.718316 13 1.00006 13V12ZM18.0001 19H19.0001C19.0001 18.7613 18.9147 18.5305 18.7593 18.3492L18.0001 19ZM12.0001 12L12.7593 11.3492C12.487 11.0315 12.0456 10.9169 11.6531 11.0621C11.2606 11.2073 11.0001 11.5815 11.0001 12H12.0001ZM23.9955 11.905C23.4053 5.7216 18.2115 1 12.0001 1V3C17.1806 3 21.5123 6.93793 22.0046 12.095L23.9955 11.905ZM12.0001 1C5.78858 1 0.594817 5.7216 0.00458592 11.905L1.99554 12.095C2.4878 6.93793 6.81953 3 12.0001 3V1ZM1.00006 13H23.0001V11H1.00006V13ZM17.0001 19C17.0001 20.1046 16.1046 21 15.0001 21V23C17.2092 23 19.0001 21.2091 19.0001 19H17.0001ZM15.0001 21C13.8955 21 13.0001 20.1046 13.0001 19H11.0001C11.0001 21.2091 12.7909 23 15.0001 23V21ZM13.0001 19V12H11.0001V19H13.0001ZM11.2408 12.6508L17.2408 19.6508L18.7593 18.3492L12.7593 11.3492L11.2408 12.6508Z" fill="currentColor"/>
</svg>
