<svg width="24" height="24" viewBox="0 0 24 24" fill="none" xmlns="http://www.w3.org/2000/svg">
<path d="M17 16C17 15.4477 16.5523 15 16 15C15.4477 15 15 15.4477 15 16H17ZM1 17H0H1ZM5 6C5.55228 6 6 5.55228 6 5C6 4.44772 5.55228 4 5 4V6ZM10.66 4C10.1077 4 9.66 4.44772 9.66 5C9.66 5.55228 10.1077 6 10.66 6V4ZM16 10.34H15C15 10.6052 15.1054 10.8596 15.2929 11.0471L16 10.34ZM17 11.34L16.2929 12.0471C16.6402 12.3944 17.1882 12.4381 17.5861 12.1503L17 11.34ZM23 7H24C24 6.62434 23.7895 6.28037 23.4549 6.10947C23.1204 5.93857 22.7183 5.96958 22.4139 6.18975L23 7ZM22 17C22 17.5523 22.4477 18 23 18C23.5523 18 24 17.5523 24 17H22ZM15 16V17H17V16H15ZM15 17C15 17.5523 14.5523 18 14 18V20C15.6569 20 17 18.6569 17 17H15ZM14 18H3V20H14V18ZM3 18C2.44772 18 2 17.5523 2 17H0C0 18.6569 1.34315 20 3 20V18ZM2 17V7H0V17H2ZM2 7C2 6.44772 2.44772 6 3 6V4C1.34315 4 0 5.34315 0 7H2ZM3 6H5V4H3V6ZM10.66 6H14V4H10.66V6ZM14 6C14.5523 6 15 6.44772 15 7H17C17 5.34315 15.6569 4 14 4V6ZM15 7V10.34H17V7H15ZM15.2929 11.0471L16.2929 12.0471L17.7071 10.6329L16.7071 9.63289L15.2929 11.0471ZM17.5861 12.1503L23.5861 7.81025L22.4139 6.18975L16.4139 10.5297L17.5861 12.1503ZM22 7V17H24V7H22Z" fill="currentColor"/>
<path d="M1 1L23 23" stroke="currentColor" stroke-width="2" stroke-linecap="round" stroke-linejoin="round"/>
</svg>
