<svg width="24" height="24" viewBox="0 0 24 24" fill="none" xmlns="http://www.w3.org/2000/svg">
<path fill-rule="evenodd" clip-rule="evenodd" d="M12 14C13.1046 14 14 13.1046 14 12C14 10.8954 13.1046 10 12 10C10.8954 10 10 10.8954 10 12C10 13.1046 10.8954 14 12 14Z" stroke="currentColor" stroke-width="2" stroke-linecap="round" stroke-linejoin="round"/>
<path d="M16.9467 7.05249C16.556 6.66219 15.9228 6.66254 15.5325 7.05328C15.1422 7.44402 15.1425 8.07719 15.5333 8.46749L16.9467 7.05249ZM15.5333 15.5425C15.1425 15.9328 15.1422 16.566 15.5325 16.9567C15.9228 17.3474 16.556 17.3478 16.9467 16.9575L15.5333 15.5425ZM7.05329 16.9475C7.44403 17.3378 8.07719 17.3374 8.4675 16.9467C8.85781 16.556 8.85746 15.9228 8.46671 15.5325L7.05329 16.9475ZM8.46671 8.45749C8.85746 8.06719 8.85781 7.43402 8.4675 7.04328C8.07719 6.65254 7.44403 6.65219 7.05329 7.04249L8.46671 8.45749ZM19.07 4.92999L19.7772 4.22299C19.4912 3.93693 19.0611 3.85132 18.6874 4.00608C18.3137 4.16085 18.07 4.5255 18.07 4.92999H19.07ZM19.07 19.07H18.07C18.07 19.4745 18.3137 19.8391 18.6874 19.9939C19.0611 20.1487 19.4912 20.0631 19.7772 19.777L19.07 19.07ZM4.93 19.07L4.22279 19.777C4.50876 20.0631 4.9389 20.1487 5.31261 19.9939C5.68633 19.8391 5.93 19.4745 5.93 19.07H4.93ZM4.93 4.92999H5.93C5.93 4.5255 5.68633 4.16085 5.31261 4.00608C4.9389 3.85132 4.50876 3.93693 4.22279 4.22299L4.93 4.92999ZM15.5333 8.46749C16.4722 9.40533 16.9997 10.6779 16.9997 12.005H18.9997C18.9997 10.1471 18.2612 8.36547 16.9467 7.05249L15.5333 8.46749ZM16.9997 12.005C16.9997 13.332 16.4722 14.6047 15.5333 15.5425L16.9467 16.9575C18.2612 15.6445 18.9997 13.8629 18.9997 12.005H16.9997ZM8.46671 15.5325C7.52783 14.5947 7.00028 13.322 7.00028 11.995H5.00028C5.00028 13.8529 5.73885 15.6345 7.05329 16.9475L8.46671 15.5325ZM7.00028 11.995C7.00028 10.6679 7.52783 9.39533 8.46671 8.45749L7.05329 7.04249C5.73885 8.35547 5.00028 10.1371 5.00028 11.995H7.00028ZM18.3628 5.63699C21.8762 9.15149 21.8762 14.8485 18.3628 18.363L19.7772 19.777C24.0714 15.4815 24.0714 8.51849 19.7772 4.22299L18.3628 5.63699ZM20.07 19.07V4.92999H18.07V19.07H20.07ZM5.63721 18.363C2.12378 14.8485 2.12378 9.15149 5.63721 5.63699L4.22279 4.22299C-0.071414 8.51849 -0.071414 15.4815 4.22279 19.777L5.63721 18.363ZM3.93 4.92999V19.07H5.93V4.92999H3.93Z" fill="currentColor"/>
</svg>
